<?xml version="1.0" encoding="UTF-8" standalone="no"?>
<svg width="1008px" height="248px" viewBox="0 0 1008 248" version="1.1" xmlns="http://www.w3.org/2000/svg" xmlns:xlink="http://www.w3.org/1999/xlink" xmlns:sketch="http://www.bohemiancoding.com/sketch/ns">
    <!-- Generator: Sketch 3.4.2 (15857) - http://www.bohemiancoding.com/sketch -->
    <title>logo</title>
    <desc>Created with Sketch.</desc>
    <defs>
        <path d="M21.14,4.15 C30.61,-0.31 41.62,-1.01 51.77,1.27 C61.84,3.56 70.32,10.9 74.87,20.06 C79.62,29.23 79.79,39.8 79.68,49.88 C61.11,50.25 42.52,49.74 23.94,50.14 C24.75,55.38 26.2,60.99 30.43,64.56 C35.51,68.98 42.7,69.41 49.1,68.78 C58.75,67.92 67.65,63.71 75.97,58.99 C76.06,65.67 76.07,72.35 75.95,79.03 C63.68,84.2 50.22,86.8 36.91,85.76 C27.96,85.02 18.89,81.99 12.27,75.74 C5.61,69.62 1.73,60.9 0.64,52 C-0.56,42.67 -0.13,32.93 3.14,24.05 C6.34,15.46 12.82,8.07 21.14,4.15 Z M28.21,23.21 C32.86,16.22 44.24,14.66 50.21,20.79 C53.74,24.2 54.7,29.23 55.12,33.92 C44.88,34.08 34.64,33.99 24.41,33.98 C24.99,30.2 25.82,26.31 28.21,23.21 Z" id="path-1"></path>
        <path d="M17.61,3.57 C25.11,-0.86 34.77,-1.05 42.66,2.49 C47.74,4.79 51.31,9.22 54.93,13.29 C55,9.49 55,5.68 55.04,1.87 C63.01,1.75 70.99,1.75 78.97,1.86 C79.05,25.91 78.98,49.96 79,74.01 C79.08,83.8 77.33,94.18 71.04,102.01 C64.75,110.08 54.69,114.23 44.75,115.44 C32.74,116.8 20.24,115.75 8.98,111.17 C9.03,104.5 8.97,97.83 9.06,91.16 C16,95.37 23.68,98.89 31.94,98.99 C38.76,99.21 46.58,97.7 50.86,91.86 C55.21,85.74 55.08,77.81 54.98,70.63 C51.55,74.32 48.3,78.4 43.72,80.72 C34.68,85.4 22.8,84.77 14.8,78.24 C6.46,71.58 1.98,61.15 0.57,50.77 C-0.72,39.99 -0.01,28.61 4.65,18.65 C7.52,12.61 11.81,7.04 17.61,3.57 Z M35.37,19.42 C40.35,17.82 46.4,19.06 49.77,23.25 C54.3,28.72 55.11,36.19 55,43.04 C54.82,49.41 53.71,56.36 49.18,61.17 C43.54,67.17 32.27,66.04 28.22,58.75 C24.33,51.9 24.28,43.6 24.94,35.95 C25.63,29.36 28.52,21.7 35.37,19.42 Z" id="path-3"></path>
        <path d="M6.74,4.03 C20.51,0.63 34.96,-1.24 49.07,0.95 C56.89,2.25 64.92,5.77 69.28,12.73 C74.07,20.19 74.99,29.34 75,38.01 C74.97,53.31 75.05,68.61 74.96,83.92 C66.99,83.94 59.01,83.94 51.04,83.92 C51.01,80.17 51,76.43 50.93,72.68 C47.62,76.4 44.45,80.49 39.93,82.81 C33.44,86.18 25.69,86.74 18.63,85.18 C9.12,82.94 1.83,74.37 0.45,64.8 C-0.68,56.81 0.18,47.87 5.33,41.33 C10.23,35.24 18.14,32.8 25.61,31.73 C34.07,30.55 42.64,31.19 51.15,30.95 C51.52,25.67 49.11,19.88 43.58,18.45 C31.27,15.05 17.97,17.67 6.69,23.24 C6.43,16.84 6.36,10.42 6.74,4.03 Z M29.7,48.7 C36.47,45.98 43.96,47.27 51.07,47.03 C51.24,53.03 50.34,59.52 46.05,64.08 C42.09,68.89 34.85,70.38 29.26,67.71 C22.09,64.17 22.21,51.84 29.7,48.7 Z" id="path-5"></path>
    </defs>
    <g id="Page-1" stroke="none" stroke-width="1" fill="none" fill-rule="evenodd" sketch:type="MSPage">
        <g id="logo" sketch:type="MSLayerGroup">
            <g id="Group">
                <path d="M33.32,2.06 C42.24,-0.31 51.63,-0.16 60.77,0.49 C67.17,2.13 74.29,5.85 76.18,12.71 C78.72,21.23 78.15,30.23 78.25,39.01 C78.39,49 75.69,59.39 69.03,67.05 C64.72,72.24 58.66,75.41 53.18,79.16 C47.05,83.23 39.77,85.36 34.09,90.13 C32.55,91.32 31.55,93.03 30.81,94.8 C28.43,100.57 26.42,106.51 25.15,112.64 C30.53,117.08 36.67,120.51 43.48,122.17 C45.87,122.78 48.5,124.09 50.93,122.96 C53.77,121.71 56.19,119.74 58.7,117.95 C63.79,114.73 67.93,110.34 72.65,106.68 C80.63,101.31 92.57,107.56 93.18,117.03 C94.22,124.99 87.32,130.54 81.79,134.98 C73.98,140.99 65.81,146.73 56.61,150.42 C46.21,152.33 36.05,148.8 26.31,145.6 C21.16,143.41 16.67,139.99 11.95,137.04 C6.72,133.8 3.28,128.58 0,123.54 L0,99.57 C3.78,89.94 5.89,79.01 13.44,71.44 C19.16,66.6 25.57,62.55 32.36,59.36 C37.38,56.94 42.05,53.83 46.56,50.57 C48.59,49.13 50,46.92 50.37,44.46 C51.3,38.89 50.73,33.22 50.8,27.61 C44.73,27.62 38.41,28.15 32.87,30.79 C31.2,32.73 30.58,35.31 29.36,37.52 C27.11,42.52 21.25,45.02 15.98,44.38 C9.36,43.83 3.77,37.67 3.96,31.01 C4.23,22.26 9.11,14.18 16.03,8.99 C20.9,4.88 27.27,3.46 33.32,2.06 L33.32,2.06 Z" id="Shape" fill="#FF0505" sketch:type="MSShapeGroup"></path>
                <path d="M83.51,52.53 C85.57,44.15 96.35,39.72 103.66,44.38 C110.25,49.11 114.64,56.12 119.68,62.32 C126.13,67.52 132.88,72.38 138.88,78.13 C142.98,82.14 149.34,83.46 152.31,88.66 C156.97,96.55 162.24,104.06 167.31,111.68 C170.09,115.71 169.18,120.76 168.14,125.2 C168.88,125.14 170.36,125.01 171.1,124.95 C171.19,116.29 171.73,107.53 170.25,98.96 C168.26,90.8 164.18,82.84 165.39,74.21 C166.53,67.53 173.25,62.45 179.99,63.17 C186.31,63.52 191.92,68.9 192.43,75.23 C193.07,82.44 196.65,88.94 197.64,96.08 C199.15,107.32 198.35,118.69 198.58,130 C198.56,134.98 199.34,140.68 195.74,144.73 C192.43,148.44 188.26,152.27 183.02,152.51 C167.69,152.51 152.32,152.01 137.01,152.85 C130.28,152.75 124.44,146.63 124.26,139.98 C123.9,134.41 127.35,128.81 132.48,126.64 C135.89,125.43 139.56,125.44 143.1,124.95 C139.68,119.39 135.96,114.03 132.46,108.53 C129.84,104.06 124.55,102.52 121.03,98.97 C115.41,93.51 109.18,88.73 102.9,84.06 C96.91,79.61 93.94,72.47 88.52,67.47 C84.3,63.84 81.85,58.03 83.51,52.53 L83.51,52.53 Z" id="Shape" fill="#010101" sketch:type="MSShapeGroup"></path>
                <path d="M432.02,66.02 C440.01,65.98 447.99,65.98 455.98,66.02 C456.07,80.47 455.9,94.93 456.05,109.39 C459.35,105.92 462.45,102.09 466.69,99.72 C476.22,94.3 489.22,95.18 497.54,102.5 C505.99,109.87 510.26,121.03 511.23,132 C512.15,142.92 511.3,154.38 506.29,164.3 C502.6,171.57 496.67,178.19 488.72,180.74 C481.46,183 473.24,182.19 466.6,178.46 C462.36,176.12 459.25,172.32 456.06,168.77 C455.99,172.51 455.99,176.24 455.98,179.98 C447.99,180.02 440,180.02 432.02,179.98 C431.99,141.99 431.99,104.01 432.02,66.02 Z M467.38,115.55 C472.55,114.08 478.76,115.46 482.09,119.89 C486.25,125.28 486.94,132.41 487.01,138.99 C486.96,145.6 486.26,152.71 482.23,158.2 C477.15,165.21 465.08,164.91 460.41,157.57 C455.51,150.11 455.59,140.62 456.41,132.06 C457.18,125.36 460.3,117.6 467.38,115.55 Z" id="Shape" fill="#010101" sketch:type="MSShapeGroup"></path>
                <path d="M537.3,75.34 C541.54,68.91 549.56,66.48 556.9,66.13 C564.13,65.87 571.38,65.94 578.61,66.14 C578.51,71.71 578.51,77.29 578.62,82.86 C573.42,83.17 568.19,82.71 563.01,83.24 C560.6,83.46 558.26,85.01 557.62,87.42 C556.66,90.85 557.04,94.46 556.99,97.98 C563.65,98.04 570.31,97.96 576.98,98.02 C577.02,104.27 577.06,110.52 576.92,116.77 C570.29,116.76 563.66,116.65 557.03,116.82 C556.86,137.75 557.21,158.69 556.86,179.62 C548.95,179.49 541.05,179.49 533.14,179.62 C532.78,158.69 533.14,137.75 532.97,116.81 C529,116.75 525.04,116.71 521.08,116.76 C520.94,110.52 520.98,104.27 521.02,98.02 C525,98.02 528.98,97.98 532.96,97.98 C532.92,90.3 532.76,81.96 537.3,75.34 L537.3,75.34 Z" id="Shape" fill="#010101" sketch:type="MSShapeGroup"></path>
                <path d="M938.32,73.46 C952.8,69.06 968.48,67.46 983.38,70.69 C991.93,72.54 1000.5,77.79 1003.38,86.47 C1006.11,95.15 1005.8,105.62 999.97,113.01 C996.94,116.96 992.27,119.01 987.84,120.94 C993.68,123.3 999.51,126.58 1002.78,132.19 C1007.83,140.53 1008.02,151.16 1005.28,160.31 C1002.35,169.87 993.75,176.59 984.38,179.25 C967.8,183.99 949.9,182.34 933.72,176.85 C933.38,169.81 933.43,162.75 933.69,155.7 C942.88,159.96 952.67,163.77 963,163.22 C968.99,163.06 975.72,161.6 979.51,156.53 C983.92,150.31 982.59,140.2 975.67,136.31 C967.99,131.86 958.78,133.35 950.32,132.88 C950.41,126.68 950.39,120.48 950.35,114.29 C958.14,113.93 966.49,115.38 973.76,111.85 C980.44,108.7 981.87,99.05 977.67,93.39 C974.2,89.04 968.29,87.83 963.02,87.78 C954.27,87.47 945.89,90.31 937.86,93.46 C937.98,86.83 936.92,79.94 938.32,73.46 L938.32,73.46 Z" id="Shape" fill="#010101" sketch:type="MSShapeGroup"></path>
                <path d="M354.28,70.42 C364.31,70.56 374.35,70.34 384.38,70.55 C396.66,106.96 408.65,143.46 420.87,179.89 C412.31,180.06 403.75,180.1 395.2,179.87 C393.19,173.25 391.31,166.59 389.04,160.05 C375.8,160.03 362.56,159.81 349.34,160.17 C347.33,166.79 345.34,173.42 343.03,179.95 C334.62,180.03 326.2,180.06 317.79,179.93 C329.76,143.36 341.92,106.85 354.28,70.42 Z M355.87,139.96 C360.26,125.55 364.41,111.05 369.41,96.85 C373.98,111.17 378.2,125.6 382.71,139.95 C373.77,140.04 364.82,140.03 355.87,139.96 Z" id="Shape" fill="#010101" sketch:type="MSShapeGroup"></path>
                <path d="M229.33,76.36 C237.47,73.73 247.01,80.25 246.99,88.91 C247.05,127.63 246.99,166.36 247.02,205.07 C247.32,212.33 241.01,218.58 233.95,219.15 C226.41,219.35 219.07,212.82 219.56,205.02 C219.61,166.34 219.53,127.66 219.59,88.98 C219.51,83.18 223.83,77.91 229.33,76.36 L229.33,76.36 Z" id="Shape" fill="#347732" sketch:type="MSShapeGroup"></path>
                <path d="M623.91,98.86 C629.69,95.7 636.48,95.79 642.85,96.34 C643.15,104.19 642.94,112.04 643.01,119.89 C636.24,117.16 628.03,115.33 621.39,119.36 C614.44,123.62 612.31,132.32 612.06,139.95 C611.88,153.29 612.09,166.64 611.98,179.98 C603.99,180.02 596,180.02 588.02,179.98 C587.99,152.66 587.98,125.34 588.02,98.02 C596.01,97.98 603.99,97.98 611.98,98.02 C611.99,102.36 612.01,106.7 612.04,111.05 C615.14,106.28 618.65,101.41 623.91,98.86 L623.91,98.86 Z" id="Shape" fill="#010101" sketch:type="MSShapeGroup"></path>
                <g id="Shape" transform="translate(838.000000, 96.000000)">
                    <mask id="mask-2" sketch:name="Mask" fill="white">
                        <use xlink:href="#path-1"></use>
                    </mask>
                    <use id="Mask" fill="#010101" sketch:type="MSShapeGroup" xlink:href="#path-1"></use>
                </g>
                <g id="Shape" transform="translate(742.000000, 96.000000)">
                    <mask id="mask-4" sketch:name="Mask" fill="white">
                        <use xlink:href="#path-3"></use>
                    </mask>
                    <use id="Mask" fill="#010101" sketch:type="MSShapeGroup" xlink:href="#path-3"></use>
                </g>
                <path d="M43.48,122.17 C47.39,118.06 53.18,116.05 58.7,117.95 C56.19,119.74 53.77,121.71 50.93,122.96 C48.5,124.09 45.87,122.78 43.48,122.17 L43.48,122.17 Z" id="Shape" fill="#010101" sketch:type="MSShapeGroup"></path>
                <path d="M56.61,150.42 C65.81,146.73 73.98,140.99 81.79,134.98 C88.82,143.09 96.48,150.7 102.5,159.63 C106.34,155.44 111.79,151.82 117.74,153.43 C125.74,155.6 130.1,163.37 133.99,170.03 C140.18,180.85 149.65,190.23 151.74,202.98 C152.99,208.6 151.27,215.04 146.29,218.32 C140.65,222.48 133.37,219.94 126.98,219.95 C113.01,218.53 98.96,219.39 84.95,219.22 C80.67,219.34 76.14,218.07 73.3,214.7 C68.05,209.19 68.82,199.46 74.84,194.83 C79.66,190.75 86.37,192 92.17,191.74 C90.05,187.99 87.69,184.37 84.82,181.15 C80.72,176.52 77.51,171.2 73.38,166.61 C67.92,161.06 63.48,154.41 56.61,150.42 Z M113.2,189.86 C114.75,189.16 115.67,191.83 114.02,192.26 C112.43,192.93 111.58,190.34 113.2,189.86 Z" id="Shape" fill="#010101" sketch:type="MSShapeGroup"></path>
                <g id="Shape" transform="translate(650.000000, 96.000000)">
                    <mask id="mask-6" sketch:name="Mask" fill="white">
                        <use xlink:href="#path-5"></use>
                    </mask>
                    <use id="Mask" fill="#010101" sketch:type="MSShapeGroup" xlink:href="#path-5"></use>
                </g>
                <path d="M38.34,166.23 C46.36,163.2 56,169.41 56.42,177.99 C57.45,186.02 50.07,193.68 42.02,192.98 C34.16,192.83 27.7,184.88 29.16,177.15 C29.86,172.17 33.58,167.81 38.34,166.23 L38.34,166.23 Z" id="Shape" fill="#FF0505" sketch:type="MSShapeGroup"></path>
                <path d="M227.35,220.28 C234.34,217.68 242.82,221.52 245.19,228.66 C248.34,236.54 242.32,246.1 233.96,246.96 C226.66,248.14 219.07,242.43 218.49,235 C217.52,228.77 221.42,222.35 227.35,220.28 L227.35,220.28 Z" id="Shape" fill="#347732" sketch:type="MSShapeGroup"></path>
            </g>
        </g>
    </g>
</svg>