<?xml version="1.0" encoding="UTF-8" ?>
<!DOCTYPE svg PUBLIC "-//W3C//DTD SVG 1.1//EN" "http://www.w3.org/Graphics/SVG/1.1/DTD/svg11.dtd">
<svg width="1024pt" height="256pt" viewBox="0 0 1024 256" version="1.1" xmlns="http://www.w3.org/2000/svg">
  <path fill="#8892BF" d=" M 0.00 0.00 L 1024.00 0.00 L 1024.00 256.00 L 0.00 256.00 L 0.00 129.27 C 3.28 134.69 6.96 140.35 12.66 143.48 C 19.05 147.32 24.99 152.56 32.68 153.45 C 40.18 156.37 48.29 157.83 56.31 156.37 C 58.57 157.89 60.89 159.36 62.99 161.11 C 65.79 163.34 67.29 166.74 69.99 169.07 C 76.21 174.64 80.11 182.15 85.72 188.26 C 88.48 191.13 90.25 194.72 92.52 197.95 C 86.81 197.98 80.30 196.60 75.40 200.39 C 69.35 204.57 67.88 213.80 72.41 219.62 C 75.01 223.24 79.46 225.43 83.93 225.20 C 92.95 225.13 101.98 225.25 111.00 225.09 C 117.37 224.91 123.67 225.99 130.03 226.09 C 134.33 226.09 138.77 227.65 142.95 226.05 C 148.34 224.21 152.29 218.74 152.10 213.01 C 151.91 205.02 148.15 197.61 144.04 190.95 C 139.43 185.69 136.57 179.25 132.35 173.72 C 130.17 168.32 126.06 163.94 121.24 160.76 C 114.88 157.08 106.47 159.86 102.69 165.93 C 99.25 161.23 96.06 156.31 91.81 152.28 C 87.99 148.90 85.78 144.06 81.52 141.14 C 86.43 137.18 92.41 132.77 93.18 126.01 C 94.07 119.35 89.30 112.61 82.77 111.12 C 78.20 110.00 73.03 111.34 69.82 114.86 C 66.69 118.34 62.79 120.97 59.08 123.77 C 53.48 121.99 47.45 123.90 43.50 128.10 C 39.72 126.76 35.54 126.34 32.36 123.66 C 30.10 121.72 26.54 120.86 25.37 117.93 C 26.61 111.06 29.37 104.51 32.02 98.08 C 38.49 91.24 48.25 89.26 55.55 83.54 C 57.50 82.06 59.62 80.85 61.71 79.60 C 72.45 72.55 78.27 59.63 78.20 46.98 C 78.00 37.99 78.91 28.80 76.49 20.02 C 75.76 16.26 73.63 12.70 70.26 10.76 C 66.44 8.67 62.56 5.89 57.98 6.16 C 51.67 6.31 45.29 5.84 39.03 6.79 C 32.72 8.44 26.09 9.17 20.22 12.17 C 12.75 16.61 6.19 23.60 4.59 32.40 C 2.16 39.09 5.93 47.09 12.57 49.55 C 19.37 52.45 28.20 48.67 30.41 41.54 C 31.26 39.56 31.39 36.59 33.99 36.12 C 39.49 34.61 45.12 33.26 50.87 33.45 C 50.38 39.86 51.87 46.56 49.72 52.75 C 48.28 56.90 43.60 58.01 40.55 60.62 C 34.95 65.07 27.70 66.70 22.09 71.13 C 19.45 73.19 16.49 74.77 13.88 76.86 C 9.65 81.04 6.80 86.41 4.89 92.00 C 3.18 96.79 1.21 101.50 0.00 106.45 L 0.00 0.00 Z" />
  <path fill="#ff0505" d=" M 39.03 6.79 C 45.29 5.84 51.67 6.31 57.98 6.16 C 62.56 5.89 66.44 8.67 70.26 10.76 C 73.63 12.70 75.76 16.26 76.49 20.02 C 78.91 28.80 78.00 37.99 78.20 46.98 C 78.27 59.63 72.45 72.55 61.71 79.60 C 59.62 80.85 57.50 82.06 55.55 83.54 C 48.25 89.26 38.49 91.24 32.02 98.08 C 29.37 104.51 26.61 111.06 25.37 117.93 C 26.54 120.86 30.10 121.72 32.36 123.66 C 35.54 126.34 39.72 126.76 43.50 128.10 C 45.46 128.70 47.44 129.84 49.55 129.48 C 53.08 128.27 56.08 125.93 59.08 123.77 C 62.79 120.97 66.69 118.34 69.82 114.86 C 73.03 111.34 78.20 110.00 82.77 111.12 C 89.30 112.61 94.07 119.35 93.18 126.01 C 92.41 132.77 86.43 137.18 81.52 141.14 C 73.75 147.17 65.67 153.05 56.31 156.37 C 48.29 157.83 40.18 156.37 32.68 153.45 C 24.99 152.56 19.05 147.32 12.66 143.48 C 6.96 140.35 3.28 134.69 0.00 129.27 L 0.00 106.45 C 1.21 101.50 3.18 96.79 4.89 92.00 C 6.80 86.41 9.65 81.04 13.88 76.86 C 16.49 74.77 19.45 73.19 22.09 71.13 C 27.70 66.70 34.95 65.07 40.55 60.62 C 43.60 58.01 48.28 56.90 49.72 52.75 C 51.87 46.56 50.38 39.86 50.87 33.45 C 45.12 33.26 39.49 34.61 33.99 36.12 C 31.39 36.59 31.26 39.56 30.41 41.54 C 28.20 48.67 19.37 52.45 12.57 49.55 C 5.93 47.09 2.16 39.09 4.59 32.40 C 6.19 23.60 12.75 16.61 20.22 12.17 C 26.09 9.17 32.72 8.44 39.03 6.79 Z" />
  <path fill="#010101" d=" M 83.14 64.11 C 81.57 55.34 90.22 46.93 98.94 48.67 C 105.12 49.45 108.58 55.11 112.60 59.18 C 115.84 62.12 117.11 66.66 120.68 69.28 C 127.63 74.27 134.25 79.75 140.48 85.61 C 144.25 88.45 149.31 89.82 151.93 93.99 C 156.68 102.05 161.94 109.81 167.25 117.51 C 169.95 121.58 169.67 126.89 167.72 131.21 C 168.59 131.16 170.32 131.07 171.19 131.02 C 171.15 123.68 171.45 116.33 170.86 109.01 C 170.51 102.72 167.57 96.99 165.99 90.98 C 165.50 86.20 164.13 80.98 166.67 76.53 C 169.78 70.20 178.14 67.25 184.51 70.33 C 189.82 72.59 192.93 78.32 192.71 83.98 C 194.13 90.70 197.30 97.06 197.88 103.98 C 199.07 116.97 198.32 130.02 198.56 143.03 C 198.61 149.27 193.47 153.65 188.73 156.82 C 185.54 158.93 181.62 158.71 177.98 158.48 C 166.97 158.35 155.96 158.45 144.95 158.42 C 140.06 158.68 134.61 159.93 130.37 156.68 C 123.15 152.24 122.17 141.00 128.46 135.35 C 132.31 131.22 138.22 131.57 143.37 130.99 C 138.93 124.64 134.76 118.11 130.54 111.61 C 127.85 109.90 125.07 108.30 122.49 106.42 C 116.24 100.02 109.06 94.63 101.89 89.31 C 98.75 86.29 95.82 83.00 93.63 79.21 C 90.24 74.12 83.71 70.78 83.14 64.11 Z" />
  <path fill="#010101" d=" M 432.00 72.00 C 440.00 72.00 448.00 72.00 456.00 72.00 C 456.00 86.66 456.00 101.32 456.00 115.98 C 459.76 110.78 464.56 105.97 470.77 103.86 C 479.47 100.84 489.84 102.03 496.99 108.07 C 505.84 115.41 510.26 126.87 511.25 138.10 C 512.25 149.46 511.15 161.44 505.60 171.60 C 501.82 178.53 495.84 184.72 488.07 186.92 C 480.03 189.16 470.83 187.91 464.10 182.83 C 460.91 180.50 458.36 177.44 456.00 174.30 C 456.00 178.20 456.00 182.10 456.00 186.00 C 448.00 186.00 440.00 186.00 432.00 186.00 C 432.00 148.00 432.00 110.00 432.00 72.00 Z" />
  <path fill="#010101" d=" M 537.29 81.33 C 541.56 74.92 549.57 72.54 556.89 72.13 C 564.09 71.87 571.31 72.04 578.52 72.03 C 578.49 77.68 578.49 83.33 578.52 88.98 C 572.64 89.36 566.54 88.19 560.82 89.83 C 555.61 92.40 557.32 99.29 557.00 104.00 C 563.67 104.00 570.33 104.00 577.00 104.00 C 577.00 110.25 577.00 116.50 577.00 122.76 C 570.33 122.75 563.66 122.75 557.00 122.76 C 556.94 143.69 557.12 164.63 556.91 185.57 C 548.95 185.44 541.00 185.50 533.04 185.53 C 532.95 164.61 533.03 143.68 533.00 122.76 C 529.00 122.75 525.00 122.75 521.00 122.76 C 521.00 116.50 521.00 110.25 521.00 104.00 C 525.00 104.00 529.00 104.00 533.00 104.00 C 532.90 96.32 532.76 87.95 537.29 81.33 Z" />
  <path fill="#010101" d=" M 937.73 79.57 C 952.02 75.26 967.35 73.55 982.09 76.41 C 990.16 77.99 998.45 82.13 1002.22 89.82 C 1005.73 97.28 1005.92 106.29 1002.97 113.97 C 1000.32 120.66 993.95 125.04 987.21 126.92 C 995.53 129.24 1002.90 135.45 1005.41 143.89 C 1008.13 153.22 1007.56 163.95 1002.44 172.39 C 997.55 180.26 988.67 184.62 979.84 186.43 C 964.44 189.52 948.27 187.96 933.50 182.73 C 933.48 175.58 933.50 168.43 933.49 161.28 C 943.04 166.55 953.91 170.02 964.92 169.10 C 969.88 168.72 975.19 167.36 978.68 163.56 C 982.26 159.63 982.74 153.65 981.11 148.77 C 979.69 144.68 975.93 141.86 971.92 140.59 C 964.97 138.30 957.57 139.19 950.39 138.99 C 950.41 132.74 950.39 126.49 950.40 120.25 C 958.20 119.94 966.54 121.36 973.81 117.84 C 981.86 114.03 982.18 100.78 974.41 96.52 C 968.75 93.18 961.80 93.52 955.51 94.26 C 949.33 95.12 943.39 97.16 937.75 99.77 C 937.71 93.04 937.75 86.30 937.73 79.57 Z" />
  <path fill="#010101" d=" M 354.16 76.49 C 364.24 76.51 374.31 76.49 384.39 76.50 C 396.55 113.00 408.70 149.50 420.86 186.00 C 412.34 186.00 403.81 186.00 395.29 186.00 C 393.25 179.33 391.19 172.66 389.14 166.00 C 375.88 166.04 362.63 165.92 349.38 166.06 C 347.39 172.73 345.21 179.35 343.14 186.00 C 334.64 186.00 326.15 186.00 317.66 186.00 C 329.82 149.49 341.96 112.98 354.16 76.49 Z" />
  <path fill="#347732" d=" M 230.18 82.11 C 238.21 80.08 246.99 86.64 247.03 94.95 C 247.02 133.97 247.04 173.00 247.02 212.02 C 246.86 220.20 238.05 226.78 230.16 224.63 C 224.34 223.33 219.63 217.96 219.50 211.95 C 219.50 172.98 219.52 134.01 219.49 95.04 C 219.50 88.92 224.28 83.41 230.18 82.11 Z" />
  <path fill="#010101" d=" M 625.22 104.22 C 630.76 101.72 637.01 101.74 642.93 102.49 C 643.09 110.36 642.95 118.23 643.00 126.11 C 636.64 122.98 628.76 121.61 622.21 124.92 C 614.04 129.25 611.96 139.43 612.00 147.91 C 611.99 160.61 612.00 173.30 612.00 186.00 C 604.00 186.00 596.00 186.00 588.00 186.00 C 588.00 158.67 588.00 131.33 588.00 104.00 C 596.00 104.00 604.00 104.00 612.00 104.00 C 611.99 108.42 612.00 112.85 611.99 117.27 C 615.17 111.90 619.31 106.69 625.22 104.22 Z" />
  <path fill="#010101" d=" M 656.49 106.10 C 670.10 102.66 684.37 100.83 698.36 102.84 C 706.42 104.05 714.78 107.55 719.27 114.71 C 723.87 121.88 724.89 130.66 724.99 139.00 C 725.01 154.65 724.99 170.29 725.00 185.93 C 717.00 185.93 709.00 185.93 701.00 185.93 C 700.99 182.02 701.00 178.10 701.00 174.19 C 697.25 179.50 692.46 184.52 686.07 186.46 C 676.62 189.40 665.10 188.44 657.82 181.16 C 649.82 173.58 648.51 161.26 651.34 151.07 C 653.11 144.51 658.19 139.14 664.49 136.66 C 676.07 131.89 688.85 133.21 701.07 133.00 C 701.77 127.39 698.70 121.39 692.85 120.23 C 680.67 117.39 667.36 119.49 656.49 125.65 C 656.50 119.13 656.50 112.62 656.49 106.10 Z" />
  <path fill="#010101" d=" M 765.19 103.10 C 773.14 100.86 782.30 102.03 788.95 107.14 C 792.15 109.52 794.68 112.65 797.01 115.86 C 796.99 111.84 797.00 107.83 797.00 103.82 C 805.00 103.81 813.00 103.81 821.00 103.82 C 820.98 128.56 821.03 153.30 820.98 178.05 C 820.92 187.64 818.62 197.72 812.15 205.10 C 806.15 212.14 797.15 215.89 788.15 217.21 C 775.71 219.01 762.80 217.73 751.02 213.31 C 751.09 206.56 751.05 199.82 751.05 193.07 C 759.02 198.27 768.47 201.82 778.12 200.87 C 783.85 200.49 790.01 198.35 793.25 193.30 C 797.35 187.05 797.02 179.23 797.00 172.07 C 793.26 177.31 788.48 182.20 782.22 184.25 C 773.78 187.07 763.80 185.96 756.79 180.23 C 748.05 173.18 743.47 162.07 742.39 151.10 C 741.31 140.04 742.39 128.37 747.75 118.47 C 751.52 111.55 757.45 105.36 765.19 103.10 Z" />
  <path fill="#010101" d=" M 848.71 113.79 C 854.50 107.48 862.69 103.72 871.11 102.58 C 880.53 101.27 890.66 102.06 899.00 106.98 C 907.76 112.11 913.80 121.18 916.06 130.99 C 917.81 137.85 917.61 144.97 917.62 151.99 C 899.09 152.03 880.55 151.96 862.02 152.02 C 862.63 157.35 864.19 163.01 868.47 166.58 C 873.56 170.94 880.72 171.42 887.10 170.75 C 896.76 169.83 905.83 165.85 914.04 160.85 C 914.05 167.60 914.04 174.34 914.04 181.09 C 900.37 186.59 885.30 189.45 870.60 187.22 C 861.02 185.76 851.75 180.93 846.00 172.98 C 839.22 163.88 837.51 152.04 838.14 140.96 C 838.64 131.12 841.81 121.06 848.71 113.79 Z" />
  <path fill="#8892BF" d=" M 369.26 102.64 C 374.01 117.00 378.17 131.56 382.70 146.00 C 373.72 146.00 364.73 146.00 355.75 146.00 C 360.27 131.55 364.62 117.05 369.26 102.64 Z" />
  <path fill="#8892BF" d=" M 867.11 124.06 C 872.41 117.62 883.89 117.01 889.14 123.82 C 891.98 127.20 892.83 131.69 893.07 135.99 C 882.80 136.01 872.53 136.00 862.27 135.99 C 863.04 131.75 864.19 127.37 867.11 124.06 Z" />
  <path fill="#8892BF" d=" M 467.39 121.57 C 472.58 120.08 478.83 121.45 482.14 125.94 C 486.43 131.65 486.98 139.14 486.99 146.03 C 486.82 152.48 486.04 159.49 481.84 164.69 C 476.55 171.23 464.94 170.69 460.39 163.57 C 455.51 156.05 455.60 146.51 456.46 137.91 C 457.25 131.26 460.32 123.55 467.39 121.57 Z" />
  <path fill="#8892BF" d=" M 778.16 121.19 C 782.97 119.97 788.57 121.27 791.77 125.23 C 796.29 130.68 797.04 138.15 796.99 144.97 C 796.82 151.34 795.75 158.30 791.23 163.13 C 785.59 169.17 774.22 168.04 770.20 160.69 C 766.16 153.55 766.24 144.89 767.08 136.96 C 767.90 130.42 771.17 122.93 778.16 121.19 Z" />
  <path fill="#010101" d=" M 43.50 128.10 C 47.45 123.90 53.48 121.99 59.08 123.77 C 56.08 125.93 53.08 128.27 49.55 129.48 C 47.44 129.84 45.46 128.70 43.50 128.10 Z" />
  <path fill="#010101" d=" M 56.31 156.37 C 65.67 153.05 73.75 147.17 81.52 141.14 C 85.78 144.06 87.99 148.90 91.81 152.28 C 96.06 156.31 99.25 161.23 102.69 165.93 C 106.47 159.86 114.88 157.08 121.24 160.76 C 126.06 163.94 130.17 168.32 132.35 173.72 C 136.57 179.25 139.43 185.69 144.04 190.95 C 148.15 197.61 151.91 205.02 152.10 213.01 C 152.29 218.74 148.34 224.21 142.95 226.05 C 138.77 227.65 134.33 226.09 130.03 226.09 C 123.67 225.99 117.37 224.91 111.00 225.09 C 101.98 225.25 92.95 225.13 83.93 225.20 C 79.46 225.43 75.01 223.24 72.41 219.62 C 67.88 213.80 69.35 204.57 75.40 200.39 C 80.30 196.60 86.81 197.98 92.52 197.95 C 90.25 194.72 88.48 191.13 85.72 188.26 C 80.11 182.15 76.21 174.64 69.99 169.07 C 67.29 166.74 65.79 163.34 62.99 161.11 C 60.89 159.36 58.57 157.89 56.31 156.37 Z" />
  <path fill="#8892BF" d=" M 679.86 150.62 C 686.56 147.92 693.99 149.38 701.03 149.00 C 701.28 155.00 700.33 161.49 696.07 166.04 C 691.71 171.35 683.05 172.78 677.51 168.56 C 672.06 163.95 672.93 153.41 679.86 150.62 Z" />
  <path fill="#ff0505" d=" M 38.21 172.25 C 45.91 169.26 55.25 174.85 56.33 183.02 C 57.91 190.94 51.10 199.15 43.01 198.98 C 35.87 199.36 29.21 193.19 29.04 186.05 C 28.52 180.06 32.56 174.17 38.21 172.25 Z" />
  <path fill="#8892BF" d=" M 112.50 198.09 C 111.78 197.05 112.77 195.24 114.04 195.29 C 115.19 195.92 115.45 196.81 114.82 197.95 C 114.24 197.99 113.08 198.06 112.50 198.09 Z" />
  <path fill="#347732" d=" M 228.07 226.01 C 235.20 223.66 243.53 228.18 245.43 235.43 C 248.13 243.49 241.52 252.75 233.10 253.07 C 226.36 253.69 219.72 248.60 218.56 241.93 C 217.02 235.20 221.50 227.93 228.07 226.01 Z" />
</svg>
