<?xml version="1.0" encoding="UTF-8" standalone="no"?>
<svg width="1008px" height="248px" viewBox="0 0 1008 248" version="1.1" xmlns="http://www.w3.org/2000/svg" xmlns:xlink="http://www.w3.org/1999/xlink">
    <!-- Generator: Sketch 41.2 (35397) - http://www.bohemiancoding.com/sketch -->
    <title>logo</title>
    <desc>Created with Sketch.</desc>
    <defs>
        <path d="M30,84 C46.5685425,84 60,72.8861003 60,49.6901408 C60,26.4941814 46.5685425,0 30,0 C13.4314575,0 -3.41060513e-13,26.4941814 -3.41060513e-13,49.6901408 C-3.41060513e-13,72.8861003 13.4314575,84 30,84 Z" id="path-1"></path>
        <path d="M21.14,4.15 C30.61,-0.31 41.62,-1.01 51.77,1.27 C61.84,3.56 70.32,10.9 74.87,20.06 C79.62,29.23 79.79,39.8 79.68,49.88 C61.11,50.25 42.52,49.74 23.94,50.14 C24.75,55.38 26.2,60.99 30.43,64.56 C35.51,68.98 42.7,69.41 49.1,68.78 C58.75,67.92 67.65,63.71 75.97,58.99 C76.06,65.67 76.07,72.35 75.95,79.03 C63.68,84.2 50.22,86.8 36.91,85.76 C27.96,85.02 18.89,81.99 12.27,75.74 C5.61,69.62 1.73,60.9 0.64,52 C-0.56,42.67 -0.13,32.93 3.14,24.05 C6.34,15.46 12.82,8.07 21.14,4.15 Z M28.21,23.21 C32.86,16.22 44.24,14.66 50.21,20.79 C53.74,24.2 54.7,29.23 55.12,33.92 C44.88,34.08 34.64,33.99 24.41,33.98 C24.99,30.2 25.82,26.31 28.21,23.21 Z" id="path-3"></path>
        <path d="M17.61,3.57 C25.11,-0.86 34.77,-1.05 42.66,2.49 C47.74,4.79 51.31,9.22 54.93,13.29 C55,9.49 55,5.68 55.04,1.87 C63.01,1.75 70.99,1.75 78.97,1.86 C79.05,25.91 78.98,49.96 79,74.01 C79.08,83.8 77.33,94.18 71.04,102.01 C64.75,110.08 54.69,114.23 44.75,115.44 C32.74,116.8 20.24,115.75 8.98,111.17 C9.03,104.5 8.97,97.83 9.06,91.16 C16,95.37 23.68,98.89 31.94,98.99 C38.76,99.21 46.58,97.7 50.86,91.86 C55.21,85.74 55.08,77.81 54.98,70.63 C51.55,74.32 48.3,78.4 43.72,80.72 C34.68,85.4 22.8,84.77 14.8,78.24 C6.46,71.58 1.98,61.15 0.57,50.77 C-0.72,39.99 -0.01,28.61 4.65,18.65 C7.52,12.61 11.81,7.04 17.61,3.57 Z M35.37,19.42 C40.35,17.82 46.4,19.06 49.77,23.25 C54.3,28.72 55.11,36.19 55,43.04 C54.82,49.41 53.71,56.36 49.18,61.17 C43.54,67.17 32.27,66.04 28.22,58.75 C24.33,51.9 24.28,43.6 24.94,35.95 C25.63,29.36 28.52,21.7 35.37,19.42 Z" id="path-5"></path>
        <path d="M6.74,4.03 C20.51,0.63 34.96,-1.24 49.07,0.95 C56.89,2.25 64.92,5.77 69.28,12.73 C74.07,20.19 74.99,29.34 75,38.01 C74.97,53.31 75.05,68.61 74.96,83.92 C66.99,83.94 59.01,83.94 51.04,83.92 C51.01,80.17 51,76.43 50.93,72.68 C47.62,76.4 44.45,80.49 39.93,82.81 C33.44,86.18 25.69,86.74 18.63,85.18 C9.12,82.94 1.83,74.37 0.45,64.8 C-0.68,56.81 0.18,47.87 5.33,41.33 C10.23,35.24 18.14,32.8 25.61,31.73 C34.07,30.55 42.64,31.19 51.15,30.95 C51.52,25.67 49.11,19.88 43.58,18.45 C31.27,15.05 17.97,17.67 6.69,23.24 C6.43,16.84 6.36,10.42 6.74,4.03 Z M29.7,48.7 C36.47,45.98 43.96,47.27 51.07,47.03 C51.24,53.03 50.34,59.52 46.05,64.08 C42.09,68.89 34.85,70.38 29.26,67.71 C22.09,64.17 22.21,51.84 29.7,48.7 Z" id="path-7"></path>
        <path d="M30.5,85 C47.3446849,85 61,73.753792 61,50.2816901 C61,26.8095883 47.3446849,0 30.5,0 C13.6553151,0 0,26.8095883 0,50.2816901 C0,73.753792 13.6553151,85 30.5,85 Z" id="path-9"></path>
        <path d="M30.5,85 C47.3446849,85 61,73.753792 61,50.2816901 C61,26.8095883 47.3446849,0 30.5,0 C13.6553151,0 0,26.8095883 0,50.2816901 C0,73.753792 13.6553151,85 30.5,85 Z" id="path-11"></path>
        <path d="M26.5,74 C41.1355459,74 53,64.2091836 53,43.7746479 C53,23.3401121 41.1355459,0 26.5,0 C11.8644541,0 0,23.3401121 0,43.7746479 C0,64.2091836 11.8644541,74 26.5,74 Z" id="path-13"></path>
        <path d="M26.5,74 C41.1355459,74 53,64.2091836 53,43.7746479 C53,23.3401121 41.1355459,0 26.5,0 C11.8644541,0 0,23.3401121 0,43.7746479 C0,64.2091836 11.8644541,74 26.5,74 Z" id="path-15"></path>
    </defs>
    <g id="Page-1" stroke="none" stroke-width="1" fill="none" fill-rule="evenodd">
        <g id="logo">
            <g id="EggRed" transform="translate(729.500000, 69.478825) rotate(-8.000000) translate(-729.500000, -69.478825) translate(699.500000, 27.478825)">
                <mask id="mask-2" fill="white">
                    <use xlink:href="#path-1"></use>
                </mask>
                <use id="Mask" fill="#D0011B" xlink:href="#path-1"></use>
                <polygon id="Rectangle" fill="#F8E81C" mask="url(#mask-2)" points="3.52941176 17.1549296 9.06264945 13.0140845 13.7446198 17.1549296 18.8522238 13.0140845 24.3854615 17.1549296 29.0674319 13.0140845 35.0263032 17.1549296 40.1339072 13.0140845 45.2415112 17.1549296 50.3491153 13.0140845 55.8823529 17.1549296 55.8823529 26.028169 50.7747489 21.2957746 45.2415112 26.028169 39.7082736 21.8873239 35.0263032 26.028169 28.6417982 21.8873239 24.3854615 26.028169 18.8522238 21.8873239 13.3189861 26.028169 9.06264945 21.8873239 3.52941176 26.028169"></polygon>
                <polygon id="Rectangle" fill="#8B572A" mask="url(#mask-2)" points="0 33.6107554 6.34146341 31.3521127 11.7073171 33.6107554 17.5609756 31.3521127 23.902439 33.6107554 29.2682927 31.3521127 36.097561 33.6107554 41.9512195 31.3521127 47.804878 33.6107554 53.6585366 31.3521127 60 33.6107554 60 38.4507042 54.1463415 35.8693982 47.804878 38.4507042 41.4634146 36.1920615 36.097561 38.4507042 28.7804878 36.1920615 23.902439 38.4507042 17.5609756 36.1920615 11.2195122 38.4507042 6.34146341 36.1920615 0 38.4507042"></polygon>
                <polygon id="Rectangle" fill="#9B9B9B" mask="url(#mask-2)" points="-3.41060513e-13 44.2586428 6.34146341 42 11.7073171 44.2586428 17.5609756 42 23.902439 44.2586428 29.2682927 42 36.097561 44.2586428 41.9512195 42 47.804878 44.2586428 53.6585366 42 60 44.2586428 60 49.0985915 54.1463415 46.5172855 47.804878 49.0985915 41.4634146 46.8399488 36.097561 49.0985915 28.7804878 46.8399488 23.902439 49.0985915 17.5609756 46.8399488 11.2195122 49.0985915 6.34146341 46.8399488 -3.41060513e-13 49.0985915"></polygon>
                <path d="M36.4705882,55.6056338 C41.343689,55.6056338 45.2941176,49.3556409 45.2941176,37.2676056 C45.2941176,25.1795704 41.343689,11.8309859 36.4705882,11.8309859 C31.5974875,11.8309859 27.6470588,25.1795704 27.6470588,37.2676056 C27.6470588,49.3556409 31.5974875,55.6056338 36.4705882,55.6056338 Z" id="Oval" fill="#FFFFFF" opacity="0.419368004" mask="url(#mask-2)"></path>
            </g>
            <g id="Grass" transform="translate(731.500000, 82.000000) rotate(-6.000000) translate(-731.500000, -82.000000) translate(653.000000, 22.000000)">
                <path d="M49.2751383,15.443541 C49.2751383,15.443541 52.1755343,57.4086584 53.6375691,78.1768382 C55.0996039,98.945018 58,105.718286 58,105.718286 L49.2751383,105.718286 L49.2751383,15.443541 Z" id="Rectangle-2" fill="#7ED321" transform="translate(53.637569, 60.580913) rotate(-16.000000) translate(-53.637569, -60.580913) "></path>
                <path d="M38.9909487,18.075397 C38.9909487,18.075397 41.8913448,60.0405144 43.3533796,80.8086942 C44.8154144,101.576874 47.7158104,108.350142 47.7158104,108.350142 L38.9909487,108.350142 L38.9909487,18.075397 Z" id="Rectangle-2" fill="#417505" transform="translate(43.353380, 63.212769) rotate(-27.000000) translate(-43.353380, -63.212769) "></path>
                <path d="M40.9626103,58.375556 C40.9626103,58.375556 43.8630064,82.0062678 45.3250412,93.7009062 C46.787076,105.395545 49.687472,109.209597 49.687472,109.209597 L40.9626103,109.209597 L40.9626103,58.375556 Z" id="Rectangle-2" fill="#417505" transform="translate(45.325041, 83.792576) rotate(-41.000000) translate(-45.325041, -83.792576) "></path>
                <path d="M54.2804072,53.975736 C54.2804072,53.975736 57.1808033,77.6064478 58.6428381,89.3010862 C60.1048729,100.995725 63.0052689,104.809777 63.0052689,104.809777 L54.2804072,104.809777 L54.2804072,53.975736 Z" id="Rectangle-2" fill="#7ED321" transform="translate(58.642838, 79.392756) rotate(-41.000000) translate(-58.642838, -79.392756) "></path>
                <path d="M40.9626103,58.375556 C40.9626103,58.375556 43.8630064,82.0062678 45.3250412,93.7009062 C46.787076,105.395545 49.687472,109.209597 49.687472,109.209597 L40.9626103,109.209597 L40.9626103,58.375556 Z" id="Rectangle-2" fill="#417505" transform="translate(45.325041, 83.792576) rotate(-41.000000) translate(-45.325041, -83.792576) "></path>
                <path d="M26.1477908,64.3161226 C26.1477908,64.3161226 29.0481869,81.0460661 30.5102217,89.3255728 C31.9722565,97.6050796 34.8726525,100.305331 34.8726525,100.305331 L26.1477908,100.305331 L26.1477908,64.3161226 Z" id="Rectangle-2" fill="#7ED321" transform="translate(30.510222, 82.310727) rotate(-100.000000) translate(-30.510222, -82.310727) "></path>
                <path d="M71.9180013,73.5382392 C71.9180013,73.5382392 73.5761819,83.1028879 75.0169997,91.3472937 C75.4817382,94.0065425 75.9238623,96.5284336 76.2804321,98.5476894 C77.7424669,106.827196 80.642863,109.527448 80.642863,109.527448 L71.9180013,109.527448 L71.9180013,73.5382392 Z" id="Rectangle-2" fill="#7ED321" transform="translate(76.280432, 91.532844) rotate(-50.000000) translate(-76.280432, -91.532844) "></path>
                <path d="M41.2804072,50.2453746 C41.2804072,50.2453746 44.1808033,73.8760865 45.6428381,85.5707249 C47.1048729,97.2653633 50.0052689,101.079415 50.0052689,101.079415 L41.2804072,101.079415 L41.2804072,50.2453746 Z" id="Rectangle-2" fill="#417505" transform="translate(45.642838, 75.662395) rotate(-41.000000) translate(-45.642838, -75.662395) "></path>
                <path d="M61.2085571,11.2676437 C61.2085571,11.2676437 64.1089532,53.2327611 65.570988,74.0009409 C67.0330228,94.7691207 69.9334188,101.542388 69.9334188,101.542388 L61.2085571,101.542388 L61.2085571,11.2676437 Z" id="Rectangle-2" fill="#417505" transform="translate(65.570988, 56.405016) rotate(-16.000000) translate(-65.570988, -56.405016) "></path>
                <path d="M50.692439,13.8994997 C50.692439,13.8994997 53.592835,55.8646171 55.0548698,76.6327969 C56.5169046,97.4009767 59.4173007,104.174244 59.4173007,104.174244 L50.692439,104.174244 L50.692439,13.8994997 Z" id="Rectangle-2" fill="#417505" transform="translate(55.054870, 59.036872) rotate(-27.000000) translate(-55.054870, -59.036872) "></path>
                <path d="M52.9818975,54.2762723 C52.9818975,54.2762723 55.8822935,77.9069842 57.3443283,89.6016226 C58.8063631,101.296261 61.7067592,105.110313 61.7067592,105.110313 L52.9818975,105.110313 L52.9818975,54.2762723 Z" id="Rectangle-2" fill="#417505" transform="translate(57.344328, 79.693293) rotate(-41.000000) translate(-57.344328, -79.693293) "></path>
                <path d="M65.9818975,49.7998387 C65.9818975,49.7998387 68.8822935,73.4305505 70.3443283,85.1251889 C71.8063631,96.8198273 74.7067592,100.633879 74.7067592,100.633879 L65.9818975,100.633879 L65.9818975,49.7998387 Z" id="Rectangle-2" fill="#417505" transform="translate(70.344328, 75.216859) rotate(-41.000000) translate(-70.344328, -75.216859) "></path>
                <path d="M54.9818975,58.7527059 C54.9818975,58.7527059 57.8822935,82.3834178 59.3443283,94.0780562 C60.8063631,105.772695 63.7067592,109.586747 63.7067592,109.586747 L54.9818975,109.586747 L54.9818975,58.7527059 Z" id="Rectangle-2" fill="#417505" transform="translate(59.344328, 84.169726) rotate(-41.000000) translate(-59.344328, -84.169726) "></path>
                <path d="M56.2621926,45.1544554 C56.2621926,45.1544554 59.1625887,72.2533588 60.6246235,85.6643757 C62.0866583,99.0753926 64.9870543,103.449219 64.9870543,103.449219 L56.2621926,103.449219 L56.2621926,45.1544554 Z" id="Rectangle-2" fill="#417505" transform="translate(60.624623, 74.301837) rotate(-41.000000) translate(-60.624623, -74.301837) "></path>
                <g opacity="0.531133396" transform="translate(78.495686, 59.564650) rotate(10.000000) translate(-78.495686, -59.564650) translate(7.995686, 11.564650)" id="Rectangle-2">
                    <path d="M37.2751383,4.62500215 C37.2751383,4.62500215 40.1755343,46.5901195 41.6375691,67.3582993 C43.0996039,88.1264791 46,94.8997468 46,94.8997468 L37.2751383,94.8997468 L37.2751383,4.62500215 Z" fill="#7ED321" transform="translate(41.637569, 49.762375) rotate(-16.000000) translate(-41.637569, -49.762375) "></path>
                    <path d="M26.9909487,7.25685816 C26.9909487,7.25685816 29.8913448,49.2219755 31.3533796,69.9901553 C32.8154144,90.7583351 35.7158104,97.5316029 35.7158104,97.5316029 L26.9909487,97.5316029 L26.9909487,7.25685816 Z" fill="#417505" transform="translate(31.353380, 52.394231) rotate(-27.000000) translate(-31.353380, -52.394231) "></path>
                    <path d="M28.9626103,47.5570171 C28.9626103,47.5570171 31.8630064,71.187729 33.3250412,82.8823674 C34.787076,94.5770058 37.687472,98.3910577 37.687472,98.3910577 L28.9626103,98.3910577 L28.9626103,47.5570171 Z" fill="#417505" transform="translate(33.325041, 72.974037) rotate(-41.000000) translate(-33.325041, -72.974037) "></path>
                    <path d="M42.2804072,43.1571971 C42.2804072,43.1571971 45.1808033,66.787909 46.6428381,78.4825474 C48.1048729,90.1771857 51.0052689,93.9912377 51.0052689,93.9912377 L42.2804072,93.9912377 L42.2804072,43.1571971 Z" fill="#7ED321" transform="translate(46.642838, 68.574217) rotate(-41.000000) translate(-46.642838, -68.574217) "></path>
                    <path d="M28.9626103,47.5570171 C28.9626103,47.5570171 31.8630064,71.187729 33.3250412,82.8823674 C34.787076,94.5770058 37.687472,98.3910577 37.687472,98.3910577 L28.9626103,98.3910577 L28.9626103,47.5570171 Z" fill="#417505" transform="translate(33.325041, 72.974037) rotate(-41.000000) translate(-33.325041, -72.974037) "></path>
                    <path d="M14.1477908,53.4975837 C14.1477908,53.4975837 17.0481869,70.2275272 18.5102217,78.507034 C19.9722565,86.7865407 22.8726525,89.4867926 22.8726525,89.4867926 L14.1477908,89.4867926 L14.1477908,53.4975837 Z" fill="#7ED321" transform="translate(18.510222, 71.492188) rotate(-100.000000) translate(-18.510222, -71.492188) "></path>
                    <path d="M59.9180013,62.7197003 C59.9180013,62.7197003 61.5761819,72.284349 63.0169997,80.5287548 C63.4817382,83.1880036 63.9238623,85.7098947 64.2804321,87.7291505 C65.7424669,96.0086573 68.642863,98.7089092 68.642863,98.7089092 L59.9180013,98.7089092 L59.9180013,62.7197003 Z" fill="#7ED321" transform="translate(64.280432, 80.714305) rotate(-50.000000) translate(-64.280432, -80.714305) "></path>
                    <path d="M29.2804072,39.4268357 C29.2804072,39.4268357 32.1808033,63.0575476 33.6428381,74.752186 C35.1048729,86.4468244 38.0052689,90.2608764 38.0052689,90.2608764 L29.2804072,90.2608764 L29.2804072,39.4268357 Z" fill="#417505" transform="translate(33.642838, 64.843856) rotate(-41.000000) translate(-33.642838, -64.843856) "></path>
                    <path d="M49.2085571,0.449104855 C49.2085571,0.449104855 52.1089532,42.4142222 53.570988,63.182402 C55.0330228,83.9505818 57.9334188,90.7238496 57.9334188,90.7238496 L49.2085571,90.7238496 L49.2085571,0.449104855 Z" fill="#417505" transform="translate(53.570988, 45.586477) rotate(-16.000000) translate(-53.570988, -45.586477) "></path>
                    <path d="M38.692439,3.08096086 C38.692439,3.08096086 41.592835,45.0460782 43.0548698,65.814258 C44.5169046,86.5824378 47.4173007,93.3557056 47.4173007,93.3557056 L38.692439,93.3557056 L38.692439,3.08096086 Z" fill="#417505" transform="translate(43.054870, 48.218333) rotate(-27.000000) translate(-43.054870, -48.218333) "></path>
                    <path d="M40.9818975,43.4577334 C40.9818975,43.4577334 43.8822935,67.0884453 45.3443283,78.7830837 C46.8063631,90.4777221 49.7067592,94.291774 49.7067592,94.291774 L40.9818975,94.291774 L40.9818975,43.4577334 Z" fill="#417505" transform="translate(45.344328, 68.874754) rotate(-41.000000) translate(-45.344328, -68.874754) "></path>
                    <path d="M53.9818975,38.9812998 C53.9818975,38.9812998 56.8822935,62.6120117 58.3443283,74.3066501 C59.8063631,86.0012885 62.7067592,89.8153404 62.7067592,89.8153404 L53.9818975,89.8153404 L53.9818975,38.9812998 Z" fill="#417505" transform="translate(58.344328, 64.398320) rotate(-41.000000) translate(-58.344328, -64.398320) "></path>
                    <path d="M42.9818975,47.934167 C42.9818975,47.934167 45.8822935,71.5648789 47.3443283,83.2595173 C48.8063631,94.9541557 51.7067592,98.7682077 51.7067592,98.7682077 L42.9818975,98.7682077 L42.9818975,47.934167 Z" fill="#417505" transform="translate(47.344328, 73.351187) rotate(-41.000000) translate(-47.344328, -73.351187) "></path>
                    <path d="M44.2621926,34.3359165 C44.2621926,34.3359165 47.1625887,61.4348199 48.6246235,74.8458368 C50.0866583,88.2568537 52.9870543,92.6306799 52.9870543,92.6306799 L44.2621926,92.6306799 L44.2621926,34.3359165 Z" fill="#417505" transform="translate(48.624623, 63.483298) rotate(-41.000000) translate(-48.624623, -63.483298) "></path>
                    <g transform="translate(104.500000, 48.000000) scale(-1, 1) translate(-104.500000, -48.000000) translate(68.000000, 0.000000)">
                        <path d="M31.2751383,4.62500215 C31.2751383,4.62500215 34.1755343,46.5901195 35.6375691,67.3582993 C37.0996039,88.1264791 40,94.8997468 40,94.8997468 L31.2751383,94.8997468 L31.2751383,4.62500215 Z" fill="#7ED321" transform="translate(35.637569, 49.762375) rotate(-16.000000) translate(-35.637569, -49.762375) "></path>
                        <path d="M20.9909487,7.25685816 C20.9909487,7.25685816 23.8913448,49.2219755 25.3533796,69.9901553 C26.8154144,90.7583351 29.7158104,97.5316029 29.7158104,97.5316029 L20.9909487,97.5316029 L20.9909487,7.25685816 Z" fill="#417505" transform="translate(25.353380, 52.394231) rotate(-27.000000) translate(-25.353380, -52.394231) "></path>
                        <path d="M22.9626103,47.5570171 C22.9626103,47.5570171 25.8630064,71.187729 27.3250412,82.8823674 C28.787076,94.5770058 31.687472,98.3910577 31.687472,98.3910577 L22.9626103,98.3910577 L22.9626103,47.5570171 Z" fill="#417505" transform="translate(27.325041, 72.974037) rotate(-41.000000) translate(-27.325041, -72.974037) "></path>
                        <path d="M36.2804072,43.1571971 C36.2804072,43.1571971 39.1808033,66.787909 40.6428381,78.4825474 C42.1048729,90.1771857 45.0052689,93.9912377 45.0052689,93.9912377 L36.2804072,93.9912377 L36.2804072,43.1571971 Z" fill="#7ED321" transform="translate(40.642838, 68.574217) rotate(-41.000000) translate(-40.642838, -68.574217) "></path>
                        <path d="M22.9626103,47.5570171 C22.9626103,47.5570171 25.8630064,71.187729 27.3250412,82.8823674 C28.787076,94.5770058 31.687472,98.3910577 31.687472,98.3910577 L22.9626103,98.3910577 L22.9626103,47.5570171 Z" fill="#417505" transform="translate(27.325041, 72.974037) rotate(-41.000000) translate(-27.325041, -72.974037) "></path>
                        <path d="M23.2804072,39.4268357 C23.2804072,39.4268357 26.1808033,63.0575476 27.6428381,74.752186 C29.1048729,86.4468244 32.0052689,90.2608764 32.0052689,90.2608764 L23.2804072,90.2608764 L23.2804072,39.4268357 Z" fill="#417505" transform="translate(27.642838, 64.843856) rotate(-41.000000) translate(-27.642838, -64.843856) "></path>
                        <path d="M43.2085571,0.449104855 C43.2085571,0.449104855 46.1089532,42.4142222 47.570988,63.182402 C49.0330228,83.9505818 51.9334188,90.7238496 51.9334188,90.7238496 L43.2085571,90.7238496 L43.2085571,0.449104855 Z" fill="#7ED321" transform="translate(47.570988, 45.586477) rotate(-16.000000) translate(-47.570988, -45.586477) "></path>
                        <path d="M32.692439,3.08096086 C32.692439,3.08096086 35.592835,45.0460782 37.0548698,65.814258 C38.5169046,86.5824378 41.4173007,93.3557056 41.4173007,93.3557056 L32.692439,93.3557056 L32.692439,3.08096086 Z" fill="#417505" transform="translate(37.054870, 48.218333) rotate(-27.000000) translate(-37.054870, -48.218333) "></path>
                        <path d="M34.9818975,43.4577334 C34.9818975,43.4577334 37.8822935,67.0884453 39.3443283,78.7830837 C40.8063631,90.4777221 43.7067592,94.291774 43.7067592,94.291774 L34.9818975,94.291774 L34.9818975,43.4577334 Z" fill="#417505" transform="translate(39.344328, 68.874754) rotate(-41.000000) translate(-39.344328, -68.874754) "></path>
                        <path d="M47.9818975,38.9812998 C47.9818975,38.9812998 50.8822935,62.6120117 52.3443283,74.3066501 C53.8063631,86.0012885 56.7067592,89.8153404 56.7067592,89.8153404 L47.9818975,89.8153404 L47.9818975,38.9812998 Z" fill="#417505" transform="translate(52.344328, 64.398320) rotate(-41.000000) translate(-52.344328, -64.398320) "></path>
                        <path d="M34.9818975,43.4577334 C34.9818975,43.4577334 37.8822935,67.0884453 39.3443283,78.7830837 C40.8063631,90.4777221 43.7067592,94.291774 43.7067592,94.291774 L34.9818975,94.291774 L34.9818975,43.4577334 Z" fill="#417505" transform="translate(39.344328, 68.874754) rotate(-41.000000) translate(-39.344328, -68.874754) "></path>
                        <path d="M38.2621926,34.3359165 C38.2621926,34.3359165 41.1625887,61.4348199 42.6246235,74.8458368 C44.0866583,88.2568537 46.9870543,92.6306799 46.9870543,92.6306799 L38.2621926,92.6306799 L38.2621926,34.3359165 Z" fill="#417505" transform="translate(42.624623, 63.483298) rotate(-41.000000) translate(-42.624623, -63.483298) "></path>
                    </g>
                </g>
                <g transform="translate(116.500000, 58.818539) scale(-1, 1) translate(-116.500000, -58.818539) translate(80.000000, 10.818539)" id="Rectangle-2">
                    <path d="M31.2751383,4.62500215 C31.2751383,4.62500215 34.1755343,46.5901195 35.6375691,67.3582993 C37.0996039,88.1264791 40,94.8997468 40,94.8997468 L31.2751383,94.8997468 L31.2751383,4.62500215 Z" fill="#7ED321" transform="translate(35.637569, 49.762375) rotate(-16.000000) translate(-35.637569, -49.762375) "></path>
                    <path d="M20.9909487,7.25685816 C20.9909487,7.25685816 23.8913448,49.2219755 25.3533796,69.9901553 C26.8154144,90.7583351 29.7158104,97.5316029 29.7158104,97.5316029 L20.9909487,97.5316029 L20.9909487,7.25685816 Z" fill="#417505" transform="translate(25.353380, 52.394231) rotate(-27.000000) translate(-25.353380, -52.394231) "></path>
                    <path d="M22.9626103,47.5570171 C22.9626103,47.5570171 25.8630064,71.187729 27.3250412,82.8823674 C28.787076,94.5770058 31.687472,98.3910577 31.687472,98.3910577 L22.9626103,98.3910577 L22.9626103,47.5570171 Z" fill="#417505" transform="translate(27.325041, 72.974037) rotate(-41.000000) translate(-27.325041, -72.974037) "></path>
                    <path d="M36.2804072,43.1571971 C36.2804072,43.1571971 39.1808033,66.787909 40.6428381,78.4825474 C42.1048729,90.1771857 45.0052689,93.9912377 45.0052689,93.9912377 L36.2804072,93.9912377 L36.2804072,43.1571971 Z" fill="#7ED321" transform="translate(40.642838, 68.574217) rotate(-41.000000) translate(-40.642838, -68.574217) "></path>
                    <path d="M22.9626103,47.5570171 C22.9626103,47.5570171 25.8630064,71.187729 27.3250412,82.8823674 C28.787076,94.5770058 31.687472,98.3910577 31.687472,98.3910577 L22.9626103,98.3910577 L22.9626103,47.5570171 Z" fill="#417505" transform="translate(27.325041, 72.974037) rotate(-41.000000) translate(-27.325041, -72.974037) "></path>
                    <path d="M23.2804072,39.4268357 C23.2804072,39.4268357 26.1808033,63.0575476 27.6428381,74.752186 C29.1048729,86.4468244 32.0052689,90.2608764 32.0052689,90.2608764 L23.2804072,90.2608764 L23.2804072,39.4268357 Z" fill="#417505" transform="translate(27.642838, 64.843856) rotate(-41.000000) translate(-27.642838, -64.843856) "></path>
                    <path d="M43.2085571,0.449104855 C43.2085571,0.449104855 46.1089532,42.4142222 47.570988,63.182402 C49.0330228,83.9505818 51.9334188,90.7238496 51.9334188,90.7238496 L43.2085571,90.7238496 L43.2085571,0.449104855 Z" fill="#7ED321" transform="translate(47.570988, 45.586477) rotate(-16.000000) translate(-47.570988, -45.586477) "></path>
                    <path d="M32.692439,3.08096086 C32.692439,3.08096086 35.592835,45.0460782 37.0548698,65.814258 C38.5169046,86.5824378 41.4173007,93.3557056 41.4173007,93.3557056 L32.692439,93.3557056 L32.692439,3.08096086 Z" fill="#417505" transform="translate(37.054870, 48.218333) rotate(-27.000000) translate(-37.054870, -48.218333) "></path>
                    <path d="M34.9818975,43.4577334 C34.9818975,43.4577334 37.8822935,67.0884453 39.3443283,78.7830837 C40.8063631,90.4777221 43.7067592,94.291774 43.7067592,94.291774 L34.9818975,94.291774 L34.9818975,43.4577334 Z" fill="#417505" transform="translate(39.344328, 68.874754) rotate(-41.000000) translate(-39.344328, -68.874754) "></path>
                    <path d="M47.9818975,38.9812998 C47.9818975,38.9812998 50.8822935,62.6120117 52.3443283,74.3066501 C53.8063631,86.0012885 56.7067592,89.8153404 56.7067592,89.8153404 L47.9818975,89.8153404 L47.9818975,38.9812998 Z" fill="#417505" transform="translate(52.344328, 64.398320) rotate(-41.000000) translate(-52.344328, -64.398320) "></path>
                    <path d="M34.9818975,43.4577334 C34.9818975,43.4577334 37.8822935,67.0884453 39.3443283,78.7830837 C40.8063631,90.4777221 43.7067592,94.291774 43.7067592,94.291774 L34.9818975,94.291774 L34.9818975,43.4577334 Z" fill="#417505" transform="translate(39.344328, 68.874754) rotate(-41.000000) translate(-39.344328, -68.874754) "></path>
                    <path d="M38.2621926,34.3359165 C38.2621926,34.3359165 41.1625887,61.4348199 42.6246235,74.8458368 C44.0866583,88.2568537 46.9870543,92.6306799 46.9870543,92.6306799 L38.2621926,92.6306799 L38.2621926,34.3359165 Z" fill="#417505" transform="translate(42.624623, 63.483298) rotate(-41.000000) translate(-42.624623, -63.483298) "></path>
                </g>
            </g>
            <g id="Group">
                <path d="M33.32,2.06 C42.24,-0.31 51.63,-0.16 60.77,0.49 C67.17,2.13 74.29,5.85 76.18,12.71 C78.72,21.23 78.15,30.23 78.25,39.01 C78.39,49 75.69,59.39 69.03,67.05 C64.72,72.24 58.66,75.41 53.18,79.16 C47.05,83.23 39.77,85.36 34.09,90.13 C32.55,91.32 31.55,93.03 30.81,94.8 C28.43,100.57 26.42,106.51 25.15,112.64 C30.53,117.08 36.67,120.51 43.48,122.17 C45.87,122.78 48.5,124.09 50.93,122.96 C53.77,121.71 56.19,119.74 58.7,117.95 C63.79,114.73 67.93,110.34 72.65,106.68 C80.63,101.31 92.57,107.56 93.18,117.03 C94.22,124.99 87.32,130.54 81.79,134.98 C73.98,140.99 65.81,146.73 56.61,150.42 C46.21,152.33 36.05,148.8 26.31,145.6 C21.16,143.41 16.67,139.99 11.95,137.04 C6.72,133.8 3.28,128.58 0,123.54 L0,99.57 C3.78,89.94 5.89,79.01 13.44,71.44 C19.16,66.6 25.57,62.55 32.36,59.36 C37.38,56.94 42.05,53.83 46.56,50.57 C48.59,49.13 50,46.92 50.37,44.46 C51.3,38.89 50.73,33.22 50.8,27.61 C44.73,27.62 38.41,28.15 32.87,30.79 C31.2,32.73 30.58,35.31 29.36,37.52 C27.11,42.52 21.25,45.02 15.98,44.38 C9.36,43.83 3.77,37.67 3.96,31.01 C4.23,22.26 9.11,14.18 16.03,8.99 C20.9,4.88 27.27,3.46 33.32,2.06 L33.32,2.06 Z" id="Shape" fill="#FF0505"></path>
                <path d="M83.51,52.53 C85.57,44.15 96.35,39.72 103.66,44.38 C110.25,49.11 114.64,56.12 119.68,62.32 C126.13,67.52 132.88,72.38 138.88,78.13 C142.98,82.14 149.34,83.46 152.31,88.66 C156.97,96.55 162.24,104.06 167.31,111.68 C170.09,115.71 169.18,120.76 168.14,125.2 C168.88,125.14 170.36,125.01 171.1,124.95 C171.19,116.29 171.73,107.53 170.25,98.96 C168.26,90.8 164.18,82.84 165.39,74.21 C166.53,67.53 173.25,62.45 179.99,63.17 C186.31,63.52 191.92,68.9 192.43,75.23 C193.07,82.44 196.65,88.94 197.64,96.08 C199.15,107.32 198.35,118.69 198.58,130 C198.56,134.98 199.34,140.68 195.74,144.73 C192.43,148.44 188.26,152.27 183.02,152.51 C167.69,152.51 152.32,152.01 137.01,152.85 C130.28,152.75 124.44,146.63 124.26,139.98 C123.9,134.41 127.35,128.81 132.48,126.64 C135.89,125.43 139.56,125.44 143.1,124.95 C139.68,119.39 135.96,114.03 132.46,108.53 C129.84,104.06 124.55,102.52 121.03,98.97 C115.41,93.51 109.18,88.73 102.9,84.06 C96.91,79.61 93.94,72.47 88.52,67.47 C84.3,63.84 81.85,58.03 83.51,52.53 L83.51,52.53 Z" id="Shape" fill="#010101"></path>
                <path d="M432.02,66.02 C440.01,65.98 447.99,65.98 455.98,66.02 C456.07,80.47 455.9,94.93 456.05,109.39 C459.35,105.92 462.45,102.09 466.69,99.72 C476.22,94.3 489.22,95.18 497.54,102.5 C505.99,109.87 510.26,121.03 511.23,132 C512.15,142.92 511.3,154.38 506.29,164.3 C502.6,171.57 496.67,178.19 488.72,180.74 C481.46,183 473.24,182.19 466.6,178.46 C462.36,176.12 459.25,172.32 456.06,168.77 C455.99,172.51 455.99,176.24 455.98,179.98 C447.99,180.02 440,180.02 432.02,179.98 C431.99,141.99 431.99,104.01 432.02,66.02 Z M467.38,115.55 C472.55,114.08 478.76,115.46 482.09,119.89 C486.25,125.28 486.94,132.41 487.01,138.99 C486.96,145.6 486.26,152.71 482.23,158.2 C477.15,165.21 465.08,164.91 460.41,157.57 C455.51,150.11 455.59,140.62 456.41,132.06 C457.18,125.36 460.3,117.6 467.38,115.55 Z" id="Shape" fill="#010101"></path>
                <path d="M537.3,75.34 C541.54,68.91 549.56,66.48 556.9,66.13 C564.13,65.87 571.38,65.94 578.61,66.14 C578.51,71.71 578.51,77.29 578.62,82.86 C573.42,83.17 568.19,82.71 563.01,83.24 C560.6,83.46 558.26,85.01 557.62,87.42 C556.66,90.85 557.04,94.46 556.99,97.98 C563.65,98.04 570.31,97.96 576.98,98.02 C577.02,104.27 577.06,110.52 576.92,116.77 C570.29,116.76 563.66,116.65 557.03,116.82 C556.86,137.75 557.21,158.69 556.86,179.62 C548.95,179.49 541.05,179.49 533.14,179.62 C532.78,158.69 533.14,137.75 532.97,116.81 C529,116.75 525.04,116.71 521.08,116.76 C520.94,110.52 520.98,104.27 521.02,98.02 C525,98.02 528.98,97.98 532.96,97.98 C532.92,90.3 532.76,81.96 537.3,75.34 L537.3,75.34 Z" id="Shape" fill="#010101"></path>
                <path d="M938.32,73.46 C952.8,69.06 968.48,67.46 983.38,70.69 C991.93,72.54 1000.5,77.79 1003.38,86.47 C1006.11,95.15 1005.8,105.62 999.97,113.01 C996.94,116.96 992.27,119.01 987.84,120.94 C993.68,123.3 999.51,126.58 1002.78,132.19 C1007.83,140.53 1008.02,151.16 1005.28,160.31 C1002.35,169.87 993.75,176.59 984.38,179.25 C967.8,183.99 949.9,182.34 933.72,176.85 C933.38,169.81 933.43,162.75 933.69,155.7 C942.88,159.96 952.67,163.77 963,163.22 C968.99,163.06 975.72,161.6 979.51,156.53 C983.92,150.31 982.59,140.2 975.67,136.31 C967.99,131.86 958.78,133.35 950.32,132.88 C950.41,126.68 950.39,120.48 950.35,114.29 C958.14,113.93 966.49,115.38 973.76,111.85 C980.44,108.7 981.87,99.05 977.67,93.39 C974.2,89.04 968.29,87.83 963.02,87.78 C954.27,87.47 945.89,90.31 937.86,93.46 C937.98,86.83 936.92,79.94 938.32,73.46 L938.32,73.46 Z" id="Shape" fill="#010101"></path>
                <path d="M354.28,70.42 C364.31,70.56 374.35,70.34 384.38,70.55 C396.66,106.96 408.65,143.46 420.87,179.89 C412.31,180.06 403.75,180.1 395.2,179.87 C393.19,173.25 391.31,166.59 389.04,160.05 C375.8,160.03 362.56,159.81 349.34,160.17 C347.33,166.79 345.34,173.42 343.03,179.95 C334.62,180.03 326.2,180.06 317.79,179.93 C329.76,143.36 341.92,106.85 354.28,70.42 Z M355.87,139.96 C360.26,125.55 364.41,111.05 369.41,96.85 C373.98,111.17 378.2,125.6 382.71,139.95 C373.77,140.04 364.82,140.03 355.87,139.96 Z" id="Shape" fill="#010101"></path>
                <path d="M229.33,76.36 C237.47,73.73 247.01,80.25 246.99,88.91 C247.05,127.63 246.99,166.36 247.02,205.07 C247.32,212.33 241.01,218.58 233.95,219.15 C226.41,219.35 219.07,212.82 219.56,205.02 C219.61,166.34 219.53,127.66 219.59,88.98 C219.51,83.18 223.83,77.91 229.33,76.36 L229.33,76.36 Z" id="Shape" fill="#347732"></path>
                <path d="M623.91,98.86 C629.69,95.7 636.48,95.79 642.85,96.34 C643.15,104.19 642.94,112.04 643.01,119.89 C636.24,117.16 628.03,115.33 621.39,119.36 C614.44,123.62 612.31,132.32 612.06,139.95 C611.88,153.29 612.09,166.64 611.98,179.98 C603.99,180.02 596,180.02 588.02,179.98 C587.99,152.66 587.98,125.34 588.02,98.02 C596.01,97.98 603.99,97.98 611.98,98.02 C611.99,102.36 612.01,106.7 612.04,111.05 C615.14,106.28 618.65,101.41 623.91,98.86 L623.91,98.86 Z" id="Shape" fill="#010101"></path>
                <g id="Shape" transform="translate(838.000000, 96.000000)">
                    <mask id="mask-4" fill="white">
                        <use xlink:href="#path-3"></use>
                    </mask>
                    <use id="Mask" fill="#010101" xlink:href="#path-3"></use>
                </g>
                <g id="Shape" transform="translate(742.000000, 96.000000)">
                    <mask id="mask-6" fill="white">
                        <use xlink:href="#path-5"></use>
                    </mask>
                    <use id="Mask" fill="#010101" xlink:href="#path-5"></use>
                </g>
                <path d="M43.48,122.17 C47.39,118.06 53.18,116.05 58.7,117.95 C56.19,119.74 53.77,121.71 50.93,122.96 C48.5,124.09 45.87,122.78 43.48,122.17 L43.48,122.17 Z" id="Shape" fill="#010101"></path>
                <path d="M56.61,150.42 C65.81,146.73 73.98,140.99 81.79,134.98 C88.82,143.09 96.48,150.7 102.5,159.63 C106.34,155.44 111.79,151.82 117.74,153.43 C125.74,155.6 130.1,163.37 133.99,170.03 C140.18,180.85 149.65,190.23 151.74,202.98 C152.99,208.6 151.27,215.04 146.29,218.32 C140.65,222.48 133.37,219.94 126.98,219.95 C113.01,218.53 98.96,219.39 84.95,219.22 C80.67,219.34 76.14,218.07 73.3,214.7 C68.05,209.19 68.82,199.46 74.84,194.83 C79.66,190.75 86.37,192 92.17,191.74 C90.05,187.99 87.69,184.37 84.82,181.15 C80.72,176.52 77.51,171.2 73.38,166.61 C67.92,161.06 63.48,154.41 56.61,150.42 Z M113.2,189.86 C114.75,189.16 115.67,191.83 114.02,192.26 C112.43,192.93 111.58,190.34 113.2,189.86 Z" id="Shape" fill="#010101"></path>
                <g id="Shape" transform="translate(650.000000, 96.000000)">
                    <mask id="mask-8" fill="white">
                        <use xlink:href="#path-7"></use>
                    </mask>
                    <use id="Mask" fill="#010101" xlink:href="#path-7"></use>
                </g>
                <path d="M38.34,166.23 C46.36,163.2 56,169.41 56.42,177.99 C57.45,186.02 50.07,193.68 42.02,192.98 C34.16,192.83 27.7,184.88 29.16,177.15 C29.86,172.17 33.58,167.81 38.34,166.23 L38.34,166.23 Z" id="Shape" fill="#FF0505"></path>
                <path d="M227.35,220.28 C234.34,217.68 242.82,221.52 245.19,228.66 C248.34,236.54 242.32,246.1 233.96,246.96 C226.66,248.14 219.07,242.43 218.49,235 C217.52,228.77 221.42,222.35 227.35,220.28 L227.35,220.28 Z" id="Shape" fill="#347732"></path>
            </g>
            <g id="EggBlue" transform="translate(305.278707, 124.271735) rotate(13.000000) translate(-305.278707, -124.271735) translate(274.778707, 81.771735)">
                <mask id="mask-10" fill="white">
                    <use xlink:href="#path-9"></use>
                </mask>
                <use id="Mask" fill="#8864FA" xlink:href="#path-9"></use>
                <polygon id="Rectangle" fill="#D0011B" mask="url(#mask-10)" points="3.58823529 17.3591549 9.21369361 13.1690141 13.9736968 17.3591549 19.1664275 13.1690141 24.7918859 17.3591549 29.551889 13.1690141 35.6100749 17.3591549 40.8028057 13.1690141 45.9955364 17.3591549 51.1882672 13.1690141 56.8137255 17.3591549 56.8137255 26.3380282 51.6209947 21.5492958 45.9955364 26.3380282 40.3700781 22.1478873 35.6100749 26.3380282 29.1191615 22.1478873 24.7918859 26.3380282 19.1664275 22.1478873 13.5409692 26.3380282 9.21369361 22.1478873 3.58823529 26.3380282"></polygon>
                <polygon id="Rectangle" fill="#F6A623" mask="url(#mask-10)" points="0 34.0108835 6.44715447 31.7253521 11.902439 34.0108835 17.8536585 31.7253521 24.300813 34.0108835 29.7560976 31.7253521 36.699187 34.0108835 42.6504065 31.7253521 48.601626 34.0108835 54.5528455 31.7253521 61 34.0108835 61 38.9084507 55.0487805 36.2964149 48.601626 38.9084507 42.1544715 36.6229193 36.699187 38.9084507 29.2601626 36.6229193 24.300813 38.9084507 17.8536585 36.6229193 11.4065041 38.9084507 6.44715447 36.6229193 0 38.9084507"></polygon>
                <polygon id="Rectangle" fill="#F8E81C" mask="url(#mask-10)" points="-1.13686838e-13 44.7855314 6.44715447 42.5 11.902439 44.7855314 17.8536585 42.5 24.300813 44.7855314 29.7560976 42.5 36.699187 44.7855314 42.6504065 42.5 48.601626 44.7855314 54.5528455 42.5 61 44.7855314 61 49.6830986 55.0487805 47.0710627 48.601626 49.6830986 42.1544715 47.3975672 36.699187 49.6830986 29.2601626 47.3975672 24.300813 49.6830986 17.8536585 47.3975672 11.4065041 49.6830986 6.44715447 47.3975672 -1.13686838e-13 49.6830986"></polygon>
                <path d="M37.0784314,56.2676056 C42.0327505,56.2676056 46.0490196,49.943208 46.0490196,37.7112676 C46.0490196,25.4793272 42.0327505,11.971831 37.0784314,11.971831 C32.1241123,11.971831 28.1078431,25.4793272 28.1078431,37.7112676 C28.1078431,49.943208 32.1241123,56.2676056 37.0784314,56.2676056 Z" id="Oval" fill="#FFFFFF" opacity="0.419368004" mask="url(#mask-10)"></path>
            </g>
            <g id="Grass" transform="translate(198.000000, 50.000000)">
                <path d="M57.2751383,16.8587815 C57.2751383,16.8587815 60.1755343,73.1068409 61.6375691,100.943527 C63.0996039,128.780214 66,137.858782 66,137.858782 L57.2751383,137.858782 L57.2751383,16.8587815 Z" id="Rectangle-2" fill="#7ED321" transform="translate(61.637569, 77.358782) rotate(-16.000000) translate(-61.637569, -77.358782) "></path>
                <path d="M46.9909487,20.3863969 C46.9909487,20.3863969 49.8913448,76.6344563 51.3533796,104.471143 C52.8154144,132.307829 55.7158104,141.386397 55.7158104,141.386397 L46.9909487,141.386397 L46.9909487,20.3863969 Z" id="Rectangle-2" fill="#417505" transform="translate(51.353380, 80.886397) rotate(-27.000000) translate(-51.353380, -80.886397) "></path>
                <path d="M48.9626103,74.4028247 C48.9626103,74.4028247 51.8630064,106.076314 53.3250412,121.751254 C54.787076,137.426195 57.687472,142.53837 57.687472,142.53837 L48.9626103,142.53837 L48.9626103,74.4028247 Z" id="Rectangle-2" fill="#417505" transform="translate(53.325041, 108.470597) rotate(-41.000000) translate(-53.325041, -108.470597) "></path>
                <path d="M62.2804072,68.5055139 C62.2804072,68.5055139 65.1808033,100.179003 66.6428381,115.853943 C68.1048729,131.528884 71.0052689,136.641059 71.0052689,136.641059 L62.2804072,136.641059 L62.2804072,68.5055139 Z" id="Rectangle-2" fill="#7ED321" transform="translate(66.642838, 102.573286) rotate(-41.000000) translate(-66.642838, -102.573286) "></path>
                <path d="M48.9626103,74.4028247 C48.9626103,74.4028247 51.8630064,106.076314 53.3250412,121.751254 C54.787076,137.426195 57.687472,142.53837 57.687472,142.53837 L48.9626103,142.53837 L48.9626103,74.4028247 Z" id="Rectangle-2" fill="#417505" transform="translate(53.325041, 108.470597) rotate(-41.000000) translate(-53.325041, -108.470597) "></path>
                <path d="M34.1477908,82.3652794 C34.1477908,82.3652794 37.0481869,104.789305 38.5102217,115.886764 C39.9722565,126.984224 42.8726525,130.603514 42.8726525,130.603514 L34.1477908,130.603514 L34.1477908,82.3652794 Z" id="Rectangle-2" fill="#7ED321" transform="translate(38.510222, 106.484396) rotate(-100.000000) translate(-38.510222, -106.484396) "></path>
                <path d="M79.9180013,94.7261685 C79.9180013,94.7261685 81.5761819,107.546171 83.0169997,118.596583 C83.4817382,122.160915 83.9238623,125.541138 84.2804321,128.247653 C85.7424669,139.345113 88.642863,142.964403 88.642863,142.964403 L79.9180013,142.964403 L79.9180013,94.7261685 Z" id="Rectangle-2" fill="#7ED321" transform="translate(84.280432, 118.845286) rotate(-50.000000) translate(-84.280432, -118.845286) "></path>
                <path d="M49.2804072,63.5055139 C49.2804072,63.5055139 52.1808033,95.179003 53.6428381,110.853943 C55.1048729,126.528884 58.0052689,131.641059 58.0052689,131.641059 L49.2804072,131.641059 L49.2804072,63.5055139 Z" id="Rectangle-2" fill="#417505" transform="translate(53.642838, 97.573286) rotate(-41.000000) translate(-53.642838, -97.573286) "></path>
                <path d="M69.2085571,11.2616062 C69.2085571,11.2616062 72.1089532,67.5096656 73.570988,95.346352 C75.0330228,123.183038 77.9334188,132.261606 77.9334188,132.261606 L69.2085571,132.261606 L69.2085571,11.2616062 Z" id="Rectangle-2" fill="#417505" transform="translate(73.570988, 71.761606) rotate(-16.000000) translate(-73.570988, -71.761606) "></path>
                <path d="M58.692439,14.7892216 C58.692439,14.7892216 61.592835,71.037281 63.0548698,98.8739673 C64.5169046,126.710654 67.4173007,135.789222 67.4173007,135.789222 L58.692439,135.789222 L58.692439,14.7892216 Z" id="Rectangle-2" fill="#417505" transform="translate(63.054870, 75.289222) rotate(-27.000000) translate(-63.054870, -75.289222) "></path>
                <path d="M60.9818975,68.9083386 C60.9818975,68.9083386 63.8822935,100.581828 65.3443283,116.256768 C66.8063631,131.931709 69.7067592,137.043884 69.7067592,137.043884 L60.9818975,137.043884 L60.9818975,68.9083386 Z" id="Rectangle-2" fill="#417505" transform="translate(65.344328, 102.976111) rotate(-41.000000) translate(-65.344328, -102.976111) "></path>
                <path d="M73.9818975,62.9083386 C73.9818975,62.9083386 76.8822935,94.5818277 78.3443283,110.256768 C79.8063631,125.931709 82.7067592,131.043884 82.7067592,131.043884 L73.9818975,131.043884 L73.9818975,62.9083386 Z" id="Rectangle-2" fill="#417505" transform="translate(78.344328, 96.976111) rotate(-41.000000) translate(-78.344328, -96.976111) "></path>
                <path d="M62.9818975,74.9083386 C62.9818975,74.9083386 65.8822935,106.581828 67.3443283,122.256768 C68.8063631,137.931709 71.7067592,143.043884 71.7067592,143.043884 L62.9818975,143.043884 L62.9818975,74.9083386 Z" id="Rectangle-2" fill="#417505" transform="translate(67.344328, 108.976111) rotate(-41.000000) translate(-67.344328, -108.976111) "></path>
                <path d="M64.2621926,56.6818865 C64.2621926,56.6818865 67.1625887,93.0039755 68.6246235,110.979469 C70.0866583,128.954962 72.9870543,134.817431 72.9870543,134.817431 L64.2621926,134.817431 L64.2621926,56.6818865 Z" id="Rectangle-2" fill="#417505" transform="translate(68.624623, 95.749659) rotate(-41.000000) translate(-68.624623, -95.749659) "></path>
                <g opacity="0.531133396" transform="translate(86.500000, 76.000000) rotate(10.000000) translate(-86.500000, -76.000000) translate(10.000000, 13.000000)" id="Rectangle-2">
                    <path d="M43.2751383,4.85878151 C43.2751383,4.85878151 46.1755343,61.1068409 47.6375691,88.9435273 C49.0996039,116.780214 52,125.858782 52,125.858782 L43.2751383,125.858782 L43.2751383,4.85878151 Z" fill="#7ED321" transform="translate(47.637569, 65.358782) rotate(-16.000000) translate(-47.637569, -65.358782) "></path>
                    <path d="M32.9909487,8.38639688 C32.9909487,8.38639688 35.8913448,64.6344563 37.3533796,92.4711426 C38.8154144,120.307829 41.7158104,129.386397 41.7158104,129.386397 L32.9909487,129.386397 L32.9909487,8.38639688 Z" fill="#417505" transform="translate(37.353380, 68.886397) rotate(-27.000000) translate(-37.353380, -68.886397) "></path>
                    <path d="M34.9626103,62.4028247 C34.9626103,62.4028247 37.8630064,94.0763137 39.3250412,109.751254 C40.787076,125.426195 43.687472,130.53837 43.687472,130.53837 L34.9626103,130.53837 L34.9626103,62.4028247 Z" fill="#417505" transform="translate(39.325041, 96.470597) rotate(-41.000000) translate(-39.325041, -96.470597) "></path>
                    <path d="M48.2804072,56.5055139 C48.2804072,56.5055139 51.1808033,88.179003 52.6428381,103.853943 C54.1048729,119.528884 57.0052689,124.641059 57.0052689,124.641059 L48.2804072,124.641059 L48.2804072,56.5055139 Z" fill="#7ED321" transform="translate(52.642838, 90.573286) rotate(-41.000000) translate(-52.642838, -90.573286) "></path>
                    <path d="M34.9626103,62.4028247 C34.9626103,62.4028247 37.8630064,94.0763137 39.3250412,109.751254 C40.787076,125.426195 43.687472,130.53837 43.687472,130.53837 L34.9626103,130.53837 L34.9626103,62.4028247 Z" fill="#417505" transform="translate(39.325041, 96.470597) rotate(-41.000000) translate(-39.325041, -96.470597) "></path>
                    <path d="M20.1477908,70.3652794 C20.1477908,70.3652794 23.0481869,92.7893047 24.5102217,103.886764 C25.9722565,114.984224 28.8726525,118.603514 28.8726525,118.603514 L20.1477908,118.603514 L20.1477908,70.3652794 Z" fill="#7ED321" transform="translate(24.510222, 94.484396) rotate(-100.000000) translate(-24.510222, -94.484396) "></path>
                    <path d="M65.9180013,82.7261685 C65.9180013,82.7261685 67.5761819,95.5461714 69.0169997,106.596583 C69.4817382,110.160915 69.9238623,113.541138 70.2804321,116.247653 C71.7424669,127.345113 74.642863,130.964403 74.642863,130.964403 L65.9180013,130.964403 L65.9180013,82.7261685 Z" fill="#7ED321" transform="translate(70.280432, 106.845286) rotate(-50.000000) translate(-70.280432, -106.845286) "></path>
                    <path d="M35.2804072,51.5055139 C35.2804072,51.5055139 38.1808033,83.179003 39.6428381,98.8539434 C41.1048729,114.528884 44.0052689,119.641059 44.0052689,119.641059 L35.2804072,119.641059 L35.2804072,51.5055139 Z" fill="#417505" transform="translate(39.642838, 85.573286) rotate(-41.000000) translate(-39.642838, -85.573286) "></path>
                    <path d="M55.2085571,-0.738393808 C55.2085571,-0.738393808 58.1089532,55.5096656 59.570988,83.346352 C61.0330228,111.183038 63.9334188,120.261606 63.9334188,120.261606 L55.2085571,120.261606 L55.2085571,-0.738393808 Z" fill="#417505" transform="translate(59.570988, 59.761606) rotate(-16.000000) translate(-59.570988, -59.761606) "></path>
                    <path d="M44.692439,2.78922156 C44.692439,2.78922156 47.592835,59.037281 49.0548698,86.8739673 C50.5169046,114.710654 53.4173007,123.789222 53.4173007,123.789222 L44.692439,123.789222 L44.692439,2.78922156 Z" fill="#417505" transform="translate(49.054870, 63.289222) rotate(-27.000000) translate(-49.054870, -63.289222) "></path>
                    <path d="M46.9818975,56.9083386 C46.9818975,56.9083386 49.8822935,88.5818277 51.3443283,104.256768 C52.8063631,119.931709 55.7067592,125.043884 55.7067592,125.043884 L46.9818975,125.043884 L46.9818975,56.9083386 Z" fill="#417505" transform="translate(51.344328, 90.976111) rotate(-41.000000) translate(-51.344328, -90.976111) "></path>
                    <path d="M59.9818975,50.9083386 C59.9818975,50.9083386 62.8822935,82.5818277 64.3443283,98.2567681 C65.8063631,113.931709 68.7067592,119.043884 68.7067592,119.043884 L59.9818975,119.043884 L59.9818975,50.9083386 Z" fill="#417505" transform="translate(64.344328, 84.976111) rotate(-41.000000) translate(-64.344328, -84.976111) "></path>
                    <path d="M48.9818975,62.9083386 C48.9818975,62.9083386 51.8822935,94.5818277 53.3443283,110.256768 C54.8063631,125.931709 57.7067592,131.043884 57.7067592,131.043884 L48.9818975,131.043884 L48.9818975,62.9083386 Z" fill="#417505" transform="translate(53.344328, 96.976111) rotate(-41.000000) translate(-53.344328, -96.976111) "></path>
                    <path d="M50.2621926,44.6818865 C50.2621926,44.6818865 53.1625887,81.0039755 54.6246235,98.9794686 C56.0866583,116.954962 58.9870543,122.817431 58.9870543,122.817431 L50.2621926,122.817431 L50.2621926,44.6818865 Z" fill="#417505" transform="translate(54.624623, 83.749659) rotate(-41.000000) translate(-54.624623, -83.749659) "></path>
                    <g transform="translate(111.000000, 63.000000) scale(-1, 1) translate(-111.000000, -63.000000) translate(69.000000, 0.000000)">
                        <path d="M37.2751383,4.85878151 C37.2751383,4.85878151 40.1755343,61.1068409 41.6375691,88.9435273 C43.0996039,116.780214 46,125.858782 46,125.858782 L37.2751383,125.858782 L37.2751383,4.85878151 Z" fill="#7ED321" transform="translate(41.637569, 65.358782) rotate(-16.000000) translate(-41.637569, -65.358782) "></path>
                        <path d="M26.9909487,8.38639688 C26.9909487,8.38639688 29.8913448,64.6344563 31.3533796,92.4711426 C32.8154144,120.307829 35.7158104,129.386397 35.7158104,129.386397 L26.9909487,129.386397 L26.9909487,8.38639688 Z" fill="#417505" transform="translate(31.353380, 68.886397) rotate(-27.000000) translate(-31.353380, -68.886397) "></path>
                        <path d="M28.9626103,62.4028247 C28.9626103,62.4028247 31.8630064,94.0763137 33.3250412,109.751254 C34.787076,125.426195 37.687472,130.53837 37.687472,130.53837 L28.9626103,130.53837 L28.9626103,62.4028247 Z" fill="#417505" transform="translate(33.325041, 96.470597) rotate(-41.000000) translate(-33.325041, -96.470597) "></path>
                        <path d="M42.2804072,56.5055139 C42.2804072,56.5055139 45.1808033,88.179003 46.6428381,103.853943 C48.1048729,119.528884 51.0052689,124.641059 51.0052689,124.641059 L42.2804072,124.641059 L42.2804072,56.5055139 Z" fill="#7ED321" transform="translate(46.642838, 90.573286) rotate(-41.000000) translate(-46.642838, -90.573286) "></path>
                        <path d="M28.9626103,62.4028247 C28.9626103,62.4028247 31.8630064,94.0763137 33.3250412,109.751254 C34.787076,125.426195 37.687472,130.53837 37.687472,130.53837 L28.9626103,130.53837 L28.9626103,62.4028247 Z" fill="#417505" transform="translate(33.325041, 96.470597) rotate(-41.000000) translate(-33.325041, -96.470597) "></path>
                        <path d="M29.2804072,51.5055139 C29.2804072,51.5055139 32.1808033,83.179003 33.6428381,98.8539434 C35.1048729,114.528884 38.0052689,119.641059 38.0052689,119.641059 L29.2804072,119.641059 L29.2804072,51.5055139 Z" fill="#417505" transform="translate(33.642838, 85.573286) rotate(-41.000000) translate(-33.642838, -85.573286) "></path>
                        <path d="M49.2085571,-0.738393808 C49.2085571,-0.738393808 52.1089532,55.5096656 53.570988,83.346352 C55.0330228,111.183038 57.9334188,120.261606 57.9334188,120.261606 L49.2085571,120.261606 L49.2085571,-0.738393808 Z" fill="#7ED321" transform="translate(53.570988, 59.761606) rotate(-16.000000) translate(-53.570988, -59.761606) "></path>
                        <path d="M38.692439,2.78922156 C38.692439,2.78922156 41.592835,59.037281 43.0548698,86.8739673 C44.5169046,114.710654 47.4173007,123.789222 47.4173007,123.789222 L38.692439,123.789222 L38.692439,2.78922156 Z" fill="#417505" transform="translate(43.054870, 63.289222) rotate(-27.000000) translate(-43.054870, -63.289222) "></path>
                        <path d="M40.9818975,56.9083386 C40.9818975,56.9083386 43.8822935,88.5818277 45.3443283,104.256768 C46.8063631,119.931709 49.7067592,125.043884 49.7067592,125.043884 L40.9818975,125.043884 L40.9818975,56.9083386 Z" fill="#417505" transform="translate(45.344328, 90.976111) rotate(-41.000000) translate(-45.344328, -90.976111) "></path>
                        <path d="M53.9818975,50.9083386 C53.9818975,50.9083386 56.8822935,82.5818277 58.3443283,98.2567681 C59.8063631,113.931709 62.7067592,119.043884 62.7067592,119.043884 L53.9818975,119.043884 L53.9818975,50.9083386 Z" fill="#417505" transform="translate(58.344328, 84.976111) rotate(-41.000000) translate(-58.344328, -84.976111) "></path>
                        <path d="M40.9818975,56.9083386 C40.9818975,56.9083386 43.8822935,88.5818277 45.3443283,104.256768 C46.8063631,119.931709 49.7067592,125.043884 49.7067592,125.043884 L40.9818975,125.043884 L40.9818975,56.9083386 Z" fill="#417505" transform="translate(45.344328, 90.976111) rotate(-41.000000) translate(-45.344328, -90.976111) "></path>
                        <path d="M44.2621926,44.6818865 C44.2621926,44.6818865 47.1625887,81.0039755 48.6246235,98.9794686 C50.0866583,116.954962 52.9870543,122.817431 52.9870543,122.817431 L44.2621926,122.817431 L44.2621926,44.6818865 Z" fill="#417505" transform="translate(48.624623, 83.749659) rotate(-41.000000) translate(-48.624623, -83.749659) "></path>
                    </g>
                </g>
                <g transform="translate(125.000000, 75.000000) scale(-1, 1) translate(-125.000000, -75.000000) translate(83.000000, 12.000000)" id="Rectangle-2">
                    <path d="M37.2751383,4.85878151 C37.2751383,4.85878151 40.1755343,61.1068409 41.6375691,88.9435273 C43.0996039,116.780214 46,125.858782 46,125.858782 L37.2751383,125.858782 L37.2751383,4.85878151 Z" fill="#7ED321" transform="translate(41.637569, 65.358782) rotate(-16.000000) translate(-41.637569, -65.358782) "></path>
                    <path d="M26.9909487,8.38639688 C26.9909487,8.38639688 29.8913448,64.6344563 31.3533796,92.4711426 C32.8154144,120.307829 35.7158104,129.386397 35.7158104,129.386397 L26.9909487,129.386397 L26.9909487,8.38639688 Z" fill="#417505" transform="translate(31.353380, 68.886397) rotate(-27.000000) translate(-31.353380, -68.886397) "></path>
                    <path d="M28.9626103,62.4028247 C28.9626103,62.4028247 31.8630064,94.0763137 33.3250412,109.751254 C34.787076,125.426195 37.687472,130.53837 37.687472,130.53837 L28.9626103,130.53837 L28.9626103,62.4028247 Z" fill="#417505" transform="translate(33.325041, 96.470597) rotate(-41.000000) translate(-33.325041, -96.470597) "></path>
                    <path d="M42.2804072,56.5055139 C42.2804072,56.5055139 45.1808033,88.179003 46.6428381,103.853943 C48.1048729,119.528884 51.0052689,124.641059 51.0052689,124.641059 L42.2804072,124.641059 L42.2804072,56.5055139 Z" fill="#7ED321" transform="translate(46.642838, 90.573286) rotate(-41.000000) translate(-46.642838, -90.573286) "></path>
                    <path d="M28.9626103,62.4028247 C28.9626103,62.4028247 31.8630064,94.0763137 33.3250412,109.751254 C34.787076,125.426195 37.687472,130.53837 37.687472,130.53837 L28.9626103,130.53837 L28.9626103,62.4028247 Z" fill="#417505" transform="translate(33.325041, 96.470597) rotate(-41.000000) translate(-33.325041, -96.470597) "></path>
                    <path d="M29.2804072,51.5055139 C29.2804072,51.5055139 32.1808033,83.179003 33.6428381,98.8539434 C35.1048729,114.528884 38.0052689,119.641059 38.0052689,119.641059 L29.2804072,119.641059 L29.2804072,51.5055139 Z" fill="#417505" transform="translate(33.642838, 85.573286) rotate(-41.000000) translate(-33.642838, -85.573286) "></path>
                    <path d="M49.2085571,-0.738393808 C49.2085571,-0.738393808 52.1089532,55.5096656 53.570988,83.346352 C55.0330228,111.183038 57.9334188,120.261606 57.9334188,120.261606 L49.2085571,120.261606 L49.2085571,-0.738393808 Z" fill="#7ED321" transform="translate(53.570988, 59.761606) rotate(-16.000000) translate(-53.570988, -59.761606) "></path>
                    <path d="M38.692439,2.78922156 C38.692439,2.78922156 41.592835,59.037281 43.0548698,86.8739673 C44.5169046,114.710654 47.4173007,123.789222 47.4173007,123.789222 L38.692439,123.789222 L38.692439,2.78922156 Z" fill="#417505" transform="translate(43.054870, 63.289222) rotate(-27.000000) translate(-43.054870, -63.289222) "></path>
                    <path d="M40.9818975,56.9083386 C40.9818975,56.9083386 43.8822935,88.5818277 45.3443283,104.256768 C46.8063631,119.931709 49.7067592,125.043884 49.7067592,125.043884 L40.9818975,125.043884 L40.9818975,56.9083386 Z" fill="#417505" transform="translate(45.344328, 90.976111) rotate(-41.000000) translate(-45.344328, -90.976111) "></path>
                    <path d="M53.9818975,50.9083386 C53.9818975,50.9083386 56.8822935,82.5818277 58.3443283,98.2567681 C59.8063631,113.931709 62.7067592,119.043884 62.7067592,119.043884 L53.9818975,119.043884 L53.9818975,50.9083386 Z" fill="#417505" transform="translate(58.344328, 84.976111) rotate(-41.000000) translate(-58.344328, -84.976111) "></path>
                    <path d="M40.9818975,56.9083386 C40.9818975,56.9083386 43.8822935,88.5818277 45.3443283,104.256768 C46.8063631,119.931709 49.7067592,125.043884 49.7067592,125.043884 L40.9818975,125.043884 L40.9818975,56.9083386 Z" fill="#417505" transform="translate(45.344328, 90.976111) rotate(-41.000000) translate(-45.344328, -90.976111) "></path>
                    <path d="M44.2621926,44.6818865 C44.2621926,44.6818865 47.1625887,81.0039755 48.6246235,98.9794686 C50.0866583,116.954962 52.9870543,122.817431 52.9870543,122.817431 L44.2621926,122.817431 L44.2621926,44.6818865 Z" fill="#417505" transform="translate(48.624623, 83.749659) rotate(-41.000000) translate(-48.624623, -83.749659) "></path>
                </g>
            </g>
            <g id="EggBlue" transform="translate(509.500000, 61.500000) rotate(13.000000) translate(-509.500000, -61.500000) translate(479.000000, 19.000000)">
                <mask id="mask-12" fill="white">
                    <use xlink:href="#path-11"></use>
                </mask>
                <use id="Mask" fill="#8864FA" xlink:href="#path-11"></use>
                <polygon id="Rectangle" fill="#D0011B" mask="url(#mask-12)" points="3.58823529 17.3591549 9.21369361 13.1690141 13.9736968 17.3591549 19.1664275 13.1690141 24.7918859 17.3591549 29.551889 13.1690141 35.6100749 17.3591549 40.8028057 13.1690141 45.9955364 17.3591549 51.1882672 13.1690141 56.8137255 17.3591549 56.8137255 26.3380282 51.6209947 21.5492958 45.9955364 26.3380282 40.3700781 22.1478873 35.6100749 26.3380282 29.1191615 22.1478873 24.7918859 26.3380282 19.1664275 22.1478873 13.5409692 26.3380282 9.21369361 22.1478873 3.58823529 26.3380282"></polygon>
                <polygon id="Rectangle" fill="#F6A623" mask="url(#mask-12)" points="0 34.0108835 6.44715447 31.7253521 11.902439 34.0108835 17.8536585 31.7253521 24.300813 34.0108835 29.7560976 31.7253521 36.699187 34.0108835 42.6504065 31.7253521 48.601626 34.0108835 54.5528455 31.7253521 61 34.0108835 61 38.9084507 55.0487805 36.2964149 48.601626 38.9084507 42.1544715 36.6229193 36.699187 38.9084507 29.2601626 36.6229193 24.300813 38.9084507 17.8536585 36.6229193 11.4065041 38.9084507 6.44715447 36.6229193 0 38.9084507"></polygon>
                <polygon id="Rectangle" fill="#F8E81C" mask="url(#mask-12)" points="1.13686838e-13 44.7855314 6.44715447 42.5 11.902439 44.7855314 17.8536585 42.5 24.300813 44.7855314 29.7560976 42.5 36.699187 44.7855314 42.6504065 42.5 48.601626 44.7855314 54.5528455 42.5 61 44.7855314 61 49.6830986 55.0487805 47.0710627 48.601626 49.6830986 42.1544715 47.3975672 36.699187 49.6830986 29.2601626 47.3975672 24.300813 49.6830986 17.8536585 47.3975672 11.4065041 49.6830986 6.44715447 47.3975672 1.13686838e-13 49.6830986"></polygon>
                <path d="M37.0784314,56.2676056 C42.0327505,56.2676056 46.0490196,49.943208 46.0490196,37.7112676 C46.0490196,25.4793272 42.0327505,11.971831 37.0784314,11.971831 C32.1241123,11.971831 28.1078431,25.4793272 28.1078431,37.7112676 C28.1078431,49.943208 32.1241123,56.2676056 37.0784314,56.2676056 Z" id="Oval" fill="#FFFFFF" opacity="0.419368004" mask="url(#mask-12)"></path>
            </g>
            <g id="EggYellow" transform="translate(212.500000, 45.000000) rotate(-2.000000) translate(-212.500000, -45.000000) translate(186.000000, 8.000000)">
                <mask id="mask-14" fill="white">
                    <use xlink:href="#path-13"></use>
                </mask>
                <use id="Mask" fill="#F8E81C" xlink:href="#path-13"></use>
                <polygon id="Rectangle" fill="#8B572A" mask="url(#mask-14)" points="1.55882353 8.33802817 6.44651682 4.69014085 10.5822573 8.33802817 15.0939742 4.69014085 19.9816675 8.33802817 24.1174079 4.69014085 29.3810776 8.33802817 33.8927945 4.69014085 38.4045114 8.33802817 42.9162283 4.69014085 47.8039216 8.33802817 47.8039216 16.1549296 43.2922047 11.9859155 38.4045114 16.1549296 33.5168181 12.5070423 29.3810776 16.1549296 23.7414315 12.5070423 19.9816675 16.1549296 15.0939742 12.5070423 10.2062809 16.1549296 6.44651682 12.5070423 1.55882353 16.1549296"></polygon>
                <polygon id="Rectangle" fill="#D0011B" mask="url(#mask-14)" points="-3.11764706 21.8873239 2.81348637 18.2394366 7.83213773 21.8873239 13.3070301 18.2394366 19.2381636 21.8873239 24.2568149 18.2394366 30.6441894 21.8873239 36.1190818 18.2394366 41.5939742 21.8873239 47.0688666 18.2394366 53 21.8873239 53 29.7042254 47.5251076 25.5352113 41.5939742 29.7042254 35.6628407 26.056338 30.6441894 29.7042254 23.8005739 26.056338 19.2381636 29.7042254 13.3070301 26.056338 7.3758967 29.7042254 2.81348637 26.056338 -3.11764706 29.7042254"></polygon>
                <polygon id="Rectangle" fill="#BD0FE1" mask="url(#mask-14)" points="0 38.9897567 5.60162602 37 10.3414634 38.9897567 15.5121951 37 21.1138211 38.9897567 25.8536585 37 31.8861789 38.9897567 37.0569106 37 42.2276423 38.9897567 47.398374 37 53 38.9897567 53 43.2535211 47.8292683 40.9795134 42.2276423 43.2535211 36.6260163 41.2637644 31.8861789 43.2535211 25.4227642 41.2637644 21.1138211 43.2535211 15.5121951 41.2637644 9.91056911 43.2535211 5.60162602 41.2637644 0 43.2535211"></polygon>
                <polygon id="Rectangle" fill="#50E3C2" mask="url(#mask-14)" points="8.52651283e-14 55.6658131 5.60162602 53.6760563 10.3414634 55.6658131 15.5121951 53.6760563 21.1138211 55.6658131 25.8536585 53.6760563 31.8861789 55.6658131 37.0569106 53.6760563 42.2276423 55.6658131 47.398374 53.6760563 53 55.6658131 53 59.9295775 47.8292683 57.6555698 42.2276423 59.9295775 36.6260163 57.9398207 31.8861789 59.9295775 25.4227642 57.9398207 21.1138211 59.9295775 15.5121951 57.9398207 9.91056911 59.9295775 5.60162602 57.9398207 8.52651283e-14 59.9295775"></polygon>
                <path d="M32.2156863,48.9859155 C36.5202586,48.9859155 40.0098039,43.4799693 40.0098039,32.8309859 C40.0098039,22.1820025 36.5202586,10.4225352 32.2156863,10.4225352 C27.911114,10.4225352 24.4215686,22.1820025 24.4215686,32.8309859 C24.4215686,43.4799693 27.911114,48.9859155 32.2156863,48.9859155 Z" id="Oval" fill="#FFFFFF" opacity="0.419368004" mask="url(#mask-14)" transform="translate(32.215686, 29.704225) rotate(-7.000000) translate(-32.215686, -29.704225) "></path>
            </g>
            <g id="EggYellow" transform="translate(912.663947, 76.311872) rotate(-194.000000) translate(-912.663947, -76.311872) translate(886.163947, 39.311872)">
                <mask id="mask-16" fill="white">
                    <use xlink:href="#path-15"></use>
                </mask>
                <use id="Mask" fill="#F8E81C" xlink:href="#path-15"></use>
                <polygon id="Rectangle" fill="#8B572A" mask="url(#mask-16)" points="1.55882353 8.33802817 6.44651682 4.69014085 10.5822573 8.33802817 15.0939742 4.69014085 19.9816675 8.33802817 24.1174079 4.69014085 29.3810776 8.33802817 33.8927945 4.69014085 38.4045114 8.33802817 42.9162283 4.69014085 47.8039216 8.33802817 47.8039216 16.1549296 43.2922047 11.9859155 38.4045114 16.1549296 33.5168181 12.5070423 29.3810776 16.1549296 23.7414315 12.5070423 19.9816675 16.1549296 15.0939742 12.5070423 10.2062809 16.1549296 6.44651682 12.5070423 1.55882353 16.1549296"></polygon>
                <polygon id="Rectangle" fill="#D0011B" mask="url(#mask-16)" points="-3.11764706 21.8873239 2.81348637 18.2394366 7.83213773 21.8873239 13.3070301 18.2394366 19.2381636 21.8873239 24.2568149 18.2394366 30.6441894 21.8873239 36.1190818 18.2394366 41.5939742 21.8873239 47.0688666 18.2394366 53 21.8873239 53 29.7042254 47.5251076 25.5352113 41.5939742 29.7042254 35.6628407 26.056338 30.6441894 29.7042254 23.8005739 26.056338 19.2381636 29.7042254 13.3070301 26.056338 7.3758967 29.7042254 2.81348637 26.056338 -3.11764706 29.7042254"></polygon>
                <polygon id="Rectangle" fill="#BD0FE1" mask="url(#mask-16)" points="0 38.9897567 5.60162602 37 10.3414634 38.9897567 15.5121951 37 21.1138211 38.9897567 25.8536585 37 31.8861789 38.9897567 37.0569106 37 42.2276423 38.9897567 47.398374 37 53 38.9897567 53 43.2535211 47.8292683 40.9795134 42.2276423 43.2535211 36.6260163 41.2637644 31.8861789 43.2535211 25.4227642 41.2637644 21.1138211 43.2535211 15.5121951 41.2637644 9.91056911 43.2535211 5.60162602 41.2637644 0 43.2535211"></polygon>
                <polygon id="Rectangle" fill="#50E3C2" mask="url(#mask-16)" points="0 55.6658131 5.60162602 53.6760563 10.3414634 55.6658131 15.5121951 53.6760563 21.1138211 55.6658131 25.8536585 53.6760563 31.8861789 55.6658131 37.0569106 53.6760563 42.2276423 55.6658131 47.398374 53.6760563 53 55.6658131 53 59.9295775 47.8292683 57.6555698 42.2276423 59.9295775 36.6260163 57.9398207 31.8861789 59.9295775 25.4227642 57.9398207 21.1138211 59.9295775 15.5121951 57.9398207 9.91056911 59.9295775 5.60162602 57.9398207 0 59.9295775"></polygon>
                <path d="M16.4141316,63.3413525 C20.7187039,63.3413525 24.2082493,57.8354063 24.2082493,47.1864229 C24.2082493,36.5374395 20.7187039,24.7779722 16.4141316,24.7779722 C12.1095593,24.7779722 8.62001396,36.5374395 8.62001396,47.1864229 C8.62001396,57.8354063 12.1095593,63.3413525 16.4141316,63.3413525 Z" id="Oval" fill="#FFFFFF" opacity="0.419368004" mask="url(#mask-16)" transform="translate(16.414132, 44.059662) rotate(7.000000) translate(-16.414132, -44.059662) "></path>
            </g>
        </g>
    </g>
</svg>