<?xml version="1.0" encoding="UTF-8" ?>
<!DOCTYPE svg PUBLIC "-//W3C//DTD SVG 1.1//EN" "http://www.w3.org/Graphics/SVG/1.1/DTD/svg11.dtd">
<svg width="1024pt" height="256pt" viewBox="0 0 1024 256" version="1.1" xmlns="http://www.w3.org/2000/svg">
<path fill="#FFFFFF" d=" M 0.00 0.00 L 1024.00 0.00 L 1024.00 256.00 L 0.00 256.00 L 0.00 129.54 C 3.28 134.58 6.72 139.80 11.95 143.04 C 16.67 145.99 21.16 149.41 26.31 151.60 C 36.05 154.80 46.21 158.33 56.61 156.42 C 63.48 160.41 67.92 167.06 73.38 172.61 C 77.51 177.20 80.72 182.52 84.82 187.15 C 87.69 190.37 90.05 193.99 92.17 197.74 C 86.37 198.00 79.66 196.75 74.84 200.83 C 68.82 205.46 68.05 215.19 73.30 220.70 C 76.14 224.07 80.67 225.34 84.95 225.22 C 98.96 225.39 113.01 224.53 126.98 225.95 C 133.37 225.94 140.65 228.48 146.29 224.32 C 151.27 221.04 152.99 214.60 151.74 208.98 C 149.65 196.23 140.18 186.85 133.99 176.03 C 130.10 169.37 125.74 161.60 117.74 159.43 C 111.79 157.82 106.34 161.44 102.50 165.63 C 96.48 156.70 88.82 149.09 81.79 140.98 C 87.32 136.54 94.22 130.99 93.18 123.03 C 92.57 113.56 80.63 107.31 72.65 112.68 C 67.93 116.34 63.79 120.73 58.70 123.95 C 53.18 122.05 47.39 124.06 43.48 128.17 C 36.67 126.51 30.53 123.08 25.15 118.64 C 26.42 112.51 28.43 106.57 30.81 100.80 C 31.55 99.03 32.55 97.32 34.09 96.13 C 39.77 91.36 47.05 89.23 53.18 85.16 C 58.66 81.41 64.72 78.24 69.03 73.05 C 75.69 65.39 78.39 55.00 78.25 45.01 C 78.15 36.23 78.72 27.23 76.18 18.71 C 74.29 11.85 67.17 8.13 60.77 6.49 C 51.63 5.84 42.24 5.69 33.32 8.06 C 27.27 9.46 20.90 10.88 16.03 14.99 C 9.11 20.18 4.23 28.26 3.96 37.01 C 3.77 43.67 9.36 49.83 15.98 50.38 C 21.25 51.02 27.11 48.52 29.36 43.52 C 30.58 41.31 31.20 38.73 32.87 36.79 C 38.41 34.15 44.73 33.62 50.80 33.61 C 50.73 39.22 51.30 44.89 50.37 50.46 C 50.00 52.92 48.59 55.13 46.56 56.57 C 42.05 59.83 37.38 62.94 32.36 65.36 C 25.57 68.55 19.16 72.60 13.44 77.44 C 5.89 85.01 3.78 95.94 0.00 105.57 L 0.00 0.00 Z" />
<path fill="#ff0505" d=" M 33.32 8.06 C 42.24 5.69 51.63 5.84 60.77 6.49 C 67.17 8.13 74.29 11.85 76.18 18.71 C 78.72 27.23 78.15 36.23 78.25 45.01 C 78.39 55.00 75.69 65.39 69.03 73.05 C 64.72 78.24 58.66 81.41 53.18 85.16 C 47.05 89.23 39.77 91.36 34.09 96.13 C 32.55 97.32 31.55 99.03 30.81 100.80 C 28.43 106.57 26.42 112.51 25.15 118.64 C 30.53 123.08 36.67 126.51 43.48 128.17 C 45.87 128.78 48.50 130.09 50.93 128.96 C 53.77 127.71 56.19 125.74 58.70 123.95 C 63.79 120.73 67.93 116.34 72.65 112.68 C 80.63 107.31 92.57 113.56 93.18 123.03 C 94.22 130.99 87.32 136.54 81.79 140.98 C 73.98 146.99 65.81 152.73 56.61 156.42 C 46.21 158.33 36.05 154.80 26.31 151.60 C 21.16 149.41 16.67 145.99 11.95 143.04 C 6.72 139.80 3.28 134.58 0.00 129.54 L 0.00 105.57 C 3.78 95.94 5.89 85.01 13.44 77.44 C 19.16 72.60 25.57 68.55 32.36 65.36 C 37.38 62.94 42.05 59.83 46.56 56.57 C 48.59 55.13 50.00 52.92 50.37 50.46 C 51.30 44.89 50.73 39.22 50.80 33.61 C 44.73 33.62 38.41 34.15 32.87 36.79 C 31.20 38.73 30.58 41.31 29.36 43.52 C 27.11 48.52 21.25 51.02 15.98 50.38 C 9.36 49.83 3.77 43.67 3.96 37.01 C 4.23 28.26 9.11 20.18 16.03 14.99 C 20.90 10.88 27.27 9.46 33.32 8.06 Z" />
<path fill="#010101" d=" M 83.51 58.53 C 85.57 50.15 96.35 45.72 103.66 50.38 C 110.25 55.11 114.64 62.12 119.68 68.32 C 126.13 73.52 132.88 78.38 138.88 84.13 C 142.98 88.14 149.34 89.46 152.31 94.66 C 156.97 102.55 162.24 110.06 167.31 117.68 C 170.09 121.71 169.18 126.76 168.14 131.20 C 168.88 131.14 170.36 131.01 171.10 130.95 C 171.19 122.29 171.73 113.53 170.25 104.96 C 168.26 96.80 164.18 88.84 165.39 80.21 C 166.53 73.53 173.25 68.45 179.99 69.17 C 186.31 69.52 191.92 74.90 192.43 81.23 C 193.07 88.44 196.65 94.94 197.64 102.08 C 199.15 113.32 198.35 124.69 198.58 136.00 C 198.56 140.98 199.34 146.68 195.74 150.73 C 192.43 154.44 188.26 158.27 183.02 158.51 C 167.69 158.51 152.32 158.01 137.01 158.85 C 130.28 158.75 124.44 152.63 124.26 145.98 C 123.90 140.41 127.35 134.81 132.48 132.64 C 135.89 131.43 139.56 131.44 143.10 130.95 C 139.68 125.39 135.96 120.03 132.46 114.53 C 129.84 110.06 124.55 108.52 121.03 104.97 C 115.41 99.51 109.18 94.73 102.90 90.06 C 96.91 85.61 93.94 78.47 88.52 73.47 C 84.30 69.84 81.85 64.03 83.51 58.53 Z" />
<path fill="#010101" d=" M 432.02 72.02 C 440.01 71.98 447.99 71.98 455.98 72.02 C 456.07 86.47 455.90 100.93 456.05 115.39 C 459.35 111.92 462.45 108.09 466.69 105.72 C 476.22 100.30 489.22 101.18 497.54 108.50 C 505.99 115.87 510.26 127.03 511.23 138.00 C 512.15 148.92 511.30 160.38 506.29 170.30 C 502.60 177.57 496.67 184.19 488.72 186.74 C 481.46 189.00 473.24 188.19 466.60 184.46 C 462.36 182.12 459.25 178.32 456.06 174.77 C 455.99 178.51 455.99 182.24 455.98 185.98 C 447.99 186.02 440.00 186.02 432.02 185.98 C 431.99 147.99 431.99 110.01 432.02 72.02 Z" />
<path fill="#010101" d=" M 537.30 81.34 C 541.54 74.91 549.56 72.48 556.90 72.13 C 564.13 71.87 571.38 71.94 578.61 72.14 C 578.51 77.71 578.51 83.29 578.62 88.86 C 573.42 89.17 568.19 88.71 563.01 89.24 C 560.60 89.46 558.26 91.01 557.62 93.42 C 556.66 96.85 557.04 100.46 556.99 103.98 C 563.65 104.04 570.31 103.96 576.98 104.02 C 577.02 110.27 577.06 116.52 576.92 122.77 C 570.29 122.76 563.66 122.65 557.03 122.82 C 556.86 143.75 557.21 164.69 556.86 185.62 C 548.95 185.49 541.05 185.49 533.14 185.62 C 532.78 164.69 533.14 143.75 532.97 122.81 C 529.00 122.75 525.04 122.71 521.08 122.76 C 520.94 116.52 520.98 110.27 521.02 104.02 C 525.00 104.02 528.98 103.98 532.96 103.98 C 532.92 96.30 532.76 87.96 537.30 81.34 Z" />
<path fill="#010101" d=" M 938.32 79.46 C 952.80 75.06 968.48 73.46 983.38 76.69 C 991.93 78.54 1000.50 83.79 1003.38 92.47 C 1006.11 101.15 1005.80 111.62 999.97 119.01 C 996.94 122.96 992.27 125.01 987.84 126.94 C 993.68 129.30 999.51 132.58 1002.78 138.19 C 1007.83 146.53 1008.02 157.16 1005.28 166.31 C 1002.35 175.87 993.75 182.59 984.38 185.25 C 967.80 189.99 949.90 188.34 933.72 182.85 C 933.38 175.81 933.43 168.75 933.69 161.70 C 942.88 165.96 952.67 169.77 963.00 169.22 C 968.99 169.06 975.72 167.60 979.51 162.53 C 983.92 156.31 982.59 146.20 975.67 142.31 C 967.99 137.86 958.78 139.35 950.32 138.88 C 950.41 132.68 950.39 126.48 950.35 120.29 C 958.14 119.93 966.49 121.38 973.76 117.85 C 980.44 114.70 981.87 105.05 977.67 99.39 C 974.20 95.04 968.29 93.83 963.02 93.78 C 954.27 93.47 945.89 96.31 937.86 99.46 C 937.98 92.83 936.92 85.94 938.32 79.46 Z" />
<path fill="#010101" d=" M 354.28 76.42 C 364.31 76.56 374.35 76.34 384.38 76.55 C 396.66 112.96 408.65 149.46 420.87 185.89 C 412.31 186.06 403.75 186.10 395.20 185.87 C 393.19 179.25 391.31 172.59 389.04 166.05 C 375.80 166.03 362.56 165.81 349.34 166.17 C 347.33 172.79 345.34 179.42 343.03 185.95 C 334.62 186.03 326.20 186.06 317.79 185.93 C 329.76 149.36 341.92 112.85 354.28 76.42 Z" />
<path fill="#347732" d=" M 229.33 82.36 C 237.47 79.73 247.01 86.25 246.99 94.91 C 247.05 133.63 246.99 172.36 247.02 211.07 C 247.32 218.33 241.01 224.58 233.95 225.15 C 226.41 225.35 219.07 218.82 219.56 211.02 C 219.61 172.34 219.53 133.66 219.59 94.98 C 219.51 89.18 223.83 83.91 229.33 82.36 Z" />
<path fill="#010101" d=" M 623.91 104.86 C 629.69 101.70 636.48 101.79 642.85 102.34 C 643.15 110.19 642.94 118.04 643.01 125.89 C 636.24 123.16 628.03 121.33 621.39 125.36 C 614.44 129.62 612.31 138.32 612.06 145.95 C 611.88 159.29 612.09 172.64 611.98 185.98 C 603.99 186.02 596.00 186.02 588.02 185.98 C 587.99 158.66 587.98 131.34 588.02 104.02 C 596.01 103.98 603.99 103.98 611.98 104.02 C 611.99 108.36 612.01 112.70 612.04 117.05 C 615.14 112.28 618.65 107.41 623.91 104.86 Z" />
<path fill="#010101" d=" M 656.74 106.03 C 670.51 102.63 684.96 100.76 699.07 102.95 C 706.89 104.25 714.92 107.77 719.28 114.73 C 724.07 122.19 724.99 131.34 725.00 140.01 C 724.97 155.31 725.05 170.61 724.96 185.92 C 716.99 185.94 709.01 185.94 701.04 185.92 C 701.01 182.17 701.00 178.43 700.93 174.68 C 697.62 178.40 694.45 182.49 689.93 184.81 C 683.44 188.18 675.69 188.74 668.63 187.18 C 659.12 184.94 651.83 176.37 650.45 166.80 C 649.32 158.81 650.18 149.87 655.33 143.33 C 660.23 137.24 668.14 134.80 675.61 133.73 C 684.07 132.55 692.64 133.19 701.15 132.95 C 701.52 127.67 699.11 121.88 693.58 120.45 C 681.27 117.05 667.97 119.67 656.69 125.24 C 656.43 118.84 656.36 112.42 656.74 106.03 Z" />
<path fill="#010101" d=" M 759.61 105.57 C 767.11 101.14 776.77 100.95 784.66 104.49 C 789.74 106.79 793.31 111.22 796.93 115.29 C 797.00 111.49 797.00 107.68 797.04 103.87 C 805.01 103.75 812.99 103.75 820.97 103.86 C 821.05 127.91 820.98 151.96 821.00 176.01 C 821.08 185.80 819.33 196.18 813.04 204.01 C 806.75 212.08 796.69 216.23 786.75 217.44 C 774.74 218.80 762.24 217.75 750.98 213.17 C 751.03 206.50 750.97 199.83 751.06 193.16 C 758.00 197.37 765.68 200.89 773.94 200.99 C 780.76 201.21 788.58 199.70 792.86 193.86 C 797.21 187.74 797.08 179.81 796.98 172.63 C 793.55 176.32 790.30 180.40 785.72 182.72 C 776.68 187.40 764.80 186.77 756.80 180.24 C 748.46 173.58 743.98 163.15 742.57 152.77 C 741.28 141.99 741.99 130.61 746.65 120.65 C 749.52 114.61 753.81 109.04 759.61 105.57 Z" />
<path fill="#010101" d=" M 859.14 106.15 C 868.61 101.69 879.62 100.99 889.77 103.27 C 899.84 105.56 908.32 112.90 912.87 122.06 C 917.62 131.23 917.79 141.80 917.68 151.88 C 899.11 152.25 880.52 151.74 861.94 152.14 C 862.75 157.38 864.20 162.99 868.43 166.56 C 873.51 170.98 880.70 171.41 887.10 170.78 C 896.75 169.92 905.65 165.71 913.97 160.99 C 914.06 167.67 914.07 174.35 913.95 181.03 C 901.68 186.20 888.22 188.80 874.91 187.76 C 865.96 187.02 856.89 183.99 850.27 177.74 C 843.61 171.62 839.73 162.90 838.64 154.00 C 837.44 144.67 837.87 134.93 841.14 126.05 C 844.34 117.46 850.82 110.07 859.14 106.15 Z" />
<path fill="#FFFFFF" d=" M 355.87 145.96 C 360.26 131.55 364.41 117.05 369.41 102.85 C 373.98 117.17 378.20 131.60 382.71 145.95 C 373.77 146.04 364.82 146.03 355.87 145.96 Z" />
<path fill="#FFFFFF" d=" M 866.21 125.21 C 870.86 118.22 882.24 116.66 888.21 122.79 C 891.74 126.20 892.70 131.23 893.12 135.92 C 882.88 136.08 872.64 135.99 862.41 135.98 C 862.99 132.20 863.82 128.31 866.21 125.21 Z" />
<path fill="#FFFFFF" d=" M 467.38 121.55 C 472.55 120.08 478.76 121.46 482.09 125.89 C 486.25 131.28 486.94 138.41 487.01 144.99 C 486.96 151.60 486.26 158.71 482.23 164.20 C 477.15 171.21 465.08 170.91 460.41 163.57 C 455.51 156.11 455.59 146.62 456.41 138.06 C 457.18 131.36 460.30 123.60 467.38 121.55 Z" />
<path fill="#FFFFFF" d=" M 777.37 121.42 C 782.35 119.82 788.40 121.06 791.77 125.25 C 796.30 130.72 797.11 138.19 797.00 145.04 C 796.82 151.41 795.71 158.36 791.18 163.17 C 785.54 169.17 774.27 168.04 770.22 160.75 C 766.33 153.90 766.28 145.60 766.94 137.95 C 767.63 131.36 770.52 123.70 777.37 121.42 Z" />
<path fill="#010101" d=" M 43.48 128.17 C 47.39 124.06 53.18 122.05 58.70 123.95 C 56.19 125.74 53.77 127.71 50.93 128.96 C 48.50 130.09 45.87 128.78 43.48 128.17 Z" />
<path fill="#010101" d=" M 56.61 156.42 C 65.81 152.73 73.98 146.99 81.79 140.98 C 88.82 149.09 96.48 156.70 102.50 165.63 C 106.34 161.44 111.79 157.82 117.74 159.43 C 125.74 161.60 130.10 169.37 133.99 176.03 C 140.18 186.85 149.65 196.23 151.74 208.98 C 152.99 214.60 151.27 221.04 146.29 224.32 C 140.65 228.48 133.37 225.94 126.98 225.95 C 113.01 224.53 98.96 225.39 84.95 225.22 C 80.67 225.34 76.14 224.07 73.30 220.70 C 68.05 215.19 68.82 205.46 74.84 200.83 C 79.66 196.75 86.37 198.00 92.17 197.74 C 90.05 193.99 87.69 190.37 84.82 187.15 C 80.72 182.52 77.51 177.20 73.38 172.61 C 67.92 167.06 63.48 160.41 56.61 156.42 Z" />
<path fill="#FFFFFF" d=" M 679.70 150.70 C 686.47 147.98 693.96 149.27 701.07 149.03 C 701.24 155.03 700.34 161.52 696.05 166.08 C 692.09 170.89 684.85 172.38 679.26 169.71 C 672.09 166.17 672.21 153.84 679.70 150.70 Z" />
<path fill="#ff0505" d=" M 38.34 172.23 C 46.36 169.20 56.00 175.41 56.42 183.99 C 57.45 192.02 50.07 199.68 42.02 198.98 C 34.16 198.83 27.70 190.88 29.16 183.15 C 29.86 178.17 33.58 173.81 38.34 172.23 Z" />
<path fill="#FFFFFF" d=" M 113.20 195.86 C 114.75 195.16 115.67 197.83 114.02 198.26 C 112.43 198.93 111.58 196.34 113.20 195.86 Z" />
<path fill="#347732" d=" M 227.35 226.28 C 234.34 223.68 242.82 227.52 245.19 234.66 C 248.34 242.54 242.32 252.10 233.96 252.96 C 226.66 254.14 219.07 248.43 218.49 241.00 C 217.52 234.77 221.42 228.35 227.35 226.28 Z" />
</svg>
